<svg width="750" height="410" viewBox="0 0 750 410" fill="none" xmlns="http://www.w3.org/2000/svg">
<rect width="750" height="410" fill="#008FA6"/>
<g clip-path="url(#clip0_28_121)">
<path d="M118.901 145V206.433C118.901 214.205 125.223 220.496 133.033 220.496V232.339C127.827 232.339 122.992 230.858 118.901 228.144C111.711 223.58 107 215.562 107 206.433V145H118.901Z" fill="white"/>
<path d="M173.941 182.008H185.842V230.858H173.941V228.145C169.85 230.735 165.016 232.339 159.809 232.339C145.429 232.339 133.776 220.743 133.776 206.433C133.776 192.124 145.429 180.528 159.809 180.528C165.016 180.528 169.85 182.008 173.941 184.722V182.008ZM173.941 205.94C173.941 198.168 167.619 191.877 159.809 191.877C151.999 191.877 145.677 198.168 145.677 205.94C145.677 213.711 151.999 220.003 159.809 220.003C167.619 220.003 173.941 213.711 173.941 205.94Z" fill="white"/>
<path d="M237.165 216.425C237.165 225.184 227.123 232.339 214.851 232.339C202.578 232.339 192.537 225.184 192.537 216.425H204.437C204.437 218.646 209.148 220.496 214.851 220.496C220.553 220.496 225.264 218.646 225.264 216.425C225.264 214.205 220.553 212.355 214.851 212.355C207.908 212.355 201.71 209.887 197.743 206.187C194.892 203.473 193.28 200.142 193.28 196.441C193.28 187.683 202.95 180.528 214.851 180.528C226.752 180.528 236.421 187.683 236.421 196.441H224.52C224.52 194.221 220.181 192.37 214.851 192.37C209.52 192.37 205.181 194.221 205.181 196.441C205.181 198.662 209.52 200.512 214.851 200.512C221.669 200.512 227.867 202.732 231.958 206.187C235.181 208.9 237.165 212.478 237.165 216.425Z" fill="white"/>
<path d="M261.093 180.651H275.225V192.494H261.093V210.134C261.093 215.809 265.804 220.496 271.506 220.496H273.737V232.339H271.506C259.233 232.339 249.192 222.347 249.192 210.134V192.494H241.754V180.651H249.192V145H261.093V180.651Z" fill="white"/>
<path d="M340.678 180.528C334.231 180.528 328.405 183.242 324.314 187.683C320.223 183.365 314.397 180.528 307.95 180.528C295.677 180.528 285.636 190.52 285.636 202.732V230.858H297.537V202.732C297.537 201.252 297.785 199.895 298.405 198.662C300.016 194.961 303.735 192.37 307.95 192.37C312.289 192.37 316.008 194.961 317.496 198.662C317.992 199.895 318.363 201.252 318.363 202.732V230.858H330.264V202.732C330.264 201.252 330.512 199.895 331.132 198.662C332.744 194.961 336.463 192.37 340.678 192.37C345.017 192.37 348.736 194.961 350.223 198.662C350.719 199.895 351.091 201.252 351.091 202.732V230.858H362.992V202.732C362.992 190.52 352.95 180.528 340.678 180.528Z" fill="white"/>
<path d="M375.638 159.803C379.729 159.803 383.076 163.134 383.076 167.205C383.076 171.276 379.729 174.606 375.638 174.606C371.547 174.606 368.2 171.276 368.2 167.205C368.2 163.134 371.547 159.803 375.638 159.803ZM369.688 182.008H381.589V230.858H369.688V182.008Z" fill="white"/>
<path d="M401.671 145V206.433C401.671 214.205 407.994 220.496 415.804 220.496V232.339C410.597 232.339 405.762 230.858 401.671 228.144C394.481 223.58 389.77 215.562 389.77 206.433V145H401.671Z" fill="white"/>
<path d="M417.29 212.355C416.794 210.504 416.546 208.53 416.546 206.433C416.546 204.336 416.794 202.362 417.29 200.512C420.017 189.04 430.307 180.528 442.58 180.528C454.852 180.528 465.266 189.04 467.869 200.512C468.365 202.362 468.489 204.336 468.489 206.433C468.489 208.53 468.241 210.504 467.869 212.355H429.935C432.29 216.919 437.001 220.003 442.58 220.003C446.051 220.003 449.15 218.769 451.629 216.795H466.505C462.538 225.924 453.365 232.339 442.704 232.339C430.431 232.339 420.017 223.827 417.414 212.355H417.29ZM429.563 200.512H455.596C453.489 195.454 448.406 191.877 442.58 191.877C436.753 191.877 431.67 195.454 429.563 200.512Z" fill="white"/>
</g>
<g clip-path="url(#clip1_28_121)">
<path d="M590.174 220.307C588.734 219.114 588.254 217.683 588.334 215.854C588.894 207.901 602.501 188.974 601.3 181.261C601.14 180.147 600.179 178 599.299 178H563.121C553.997 178 547.353 213.627 539.91 218.955C530.625 225.556 504.852 217.683 497.729 223.329C495.088 225.476 480.68 258.797 481.001 261.819C481.161 262.932 482.201 265 483.002 265H520.46C527.584 265 536.868 222.772 546.313 222.772H579.929L581.69 224.92C584.091 232.156 570.565 251.481 569.204 259.592C568.964 261.262 568.964 265 570.885 265H608.343C615.947 265 630.354 235.099 630.354 225.476C627.233 216.729 593.536 222.931 590.174 220.387V220.307Z" fill="#FFD833"/>
<path d="M642.84 191.837C641.399 189.929 631.474 190.326 628.833 190.883C622.51 192.314 615.066 209.253 618.828 211.798C620.669 213.07 630.594 212.593 633.155 211.798C638.598 210.128 643.961 197.245 642.92 191.837H642.84Z" fill="#FFD833"/>
</g>
<defs>
<clipPath id="clip0_28_121">
<rect width="361.613" height="87.3387" fill="white" transform="translate(107 145)"/>
</clipPath>
<clipPath id="clip1_28_121">
<rect width="162" height="87" fill="white" transform="translate(481 178)"/>
</clipPath>
</defs>
</svg>