<svg width="192" height="43" viewBox="0 0 192 43" fill="none" xmlns="http://www.w3.org/2000/svg">
<g clip-path="url(#clip0_148_808)">
<path d="M4.59572 0V21.8834C4.59572 24.6518 6.84783 26.8929 9.62985 26.8929V31.1114C7.77517 31.1114 6.05297 30.5841 4.59572 29.6173C2.03449 27.9915 0.356445 25.1352 0.356445 21.8834V0H4.59572Z" fill="#008FA6"/>
<path d="M24.914 13.1826H29.1533V30.5839H24.914V29.6171C23.4567 30.5399 21.7345 31.1112 19.8799 31.1112C14.7574 31.1112 10.6064 26.9806 10.6064 21.8832C10.6064 16.7859 14.7574 12.6553 19.8799 12.6553C21.7345 12.6553 23.4567 13.1826 24.914 14.1493V13.1826ZM24.914 21.7075C24.914 18.9391 22.6619 16.698 19.8799 16.698C17.0978 16.698 14.8457 18.9391 14.8457 21.7075C14.8457 24.4758 17.0978 26.7169 19.8799 26.7169C22.6619 26.7169 24.914 24.4758 24.914 21.7075Z" fill="#008FA6"/>
<path d="M47.4354 25.4426C47.4354 28.5625 43.8585 31.1112 39.4867 31.1112C35.115 31.1112 31.5381 28.5625 31.5381 25.4426H35.7774C35.7774 26.2335 37.4554 26.8927 39.4867 26.8927C41.518 26.8927 43.1961 26.2335 43.1961 25.4426C43.1961 24.6516 41.518 23.9925 39.4867 23.9925C37.0138 23.9925 34.8059 23.1136 33.3928 21.7953C32.3771 20.8286 31.803 19.6422 31.803 18.3239C31.803 15.2039 35.2474 12.6553 39.4867 12.6553C43.726 12.6553 47.1704 15.2039 47.1704 18.3239H42.9311C42.9311 17.5329 41.3856 16.8738 39.4867 16.8738C37.5879 16.8738 36.0423 17.5329 36.0423 18.3239C36.0423 19.1148 37.5879 19.774 39.4867 19.774C41.9155 19.774 44.1234 20.5649 45.5807 21.7953C46.7288 22.7621 47.4354 24.0364 47.4354 25.4426Z" fill="#008FA6"/>
<path d="M55.9591 12.6994H60.9933V16.9179H55.9591V23.2017C55.9591 25.2231 57.6372 26.8929 59.6685 26.8929H60.4634V31.1114H59.6685C55.2967 31.1114 51.7199 27.552 51.7199 23.2017V16.9179H49.0703V12.6994H51.7199V0H55.9591V12.6994Z" fill="#008FA6"/>
<path d="M84.3078 12.6553C82.0115 12.6553 79.9361 13.622 78.4788 15.2039C77.0216 13.666 74.9461 12.6553 72.6498 12.6553C68.2781 12.6553 64.7012 16.2146 64.7012 20.5649V30.5839H68.9404V20.5649C68.9404 20.0376 69.0288 19.5543 69.2496 19.1148C69.8236 17.7966 71.1484 16.8738 72.6498 16.8738C74.1954 16.8738 75.5201 17.7966 76.0501 19.1148C76.2267 19.5543 76.3592 20.0376 76.3592 20.5649V30.5839H80.5984V20.5649C80.5984 20.0376 80.6868 19.5543 80.9076 19.1148C81.4816 17.7966 82.8064 16.8738 84.3078 16.8738C85.8534 16.8738 87.1782 17.7966 87.7081 19.1148C87.8847 19.5543 88.0172 20.0376 88.0172 20.5649V30.5839H92.2564V20.5649C92.2564 16.2146 88.6796 12.6553 84.3078 12.6553Z" fill="#008FA6"/>
<path d="M97.1183 5.27344C98.5755 5.27344 99.7678 6.45989 99.7678 7.91C99.7678 9.3601 98.5755 10.5466 97.1183 10.5466C95.661 10.5466 94.4688 9.3601 94.4688 7.91C94.4688 6.45989 95.661 5.27344 97.1183 5.27344ZM94.9987 13.1831H99.2379V30.5844H94.9987V13.1831Z" fill="#008FA6"/>
<path d="M106.392 0V21.8834C106.392 24.6518 108.644 26.8929 111.426 26.8929V31.1114C109.571 31.1114 107.849 30.5841 106.392 29.6173C103.83 27.9915 102.152 25.1352 102.152 21.8834V0H106.392Z" fill="#008FA6"/>
<path d="M111.955 23.9925C111.779 23.3333 111.69 22.6303 111.69 21.8832C111.69 21.1362 111.779 20.4331 111.955 19.774C112.927 15.6873 116.592 12.6553 120.964 12.6553C125.336 12.6553 129.045 15.6873 129.972 19.774C130.149 20.4331 130.193 21.1362 130.193 21.8832C130.193 22.6303 130.105 23.3333 129.972 23.9925H116.46C117.299 25.6184 118.977 26.7169 120.964 26.7169C122.2 26.7169 123.304 26.2775 124.187 25.5744H129.487C128.073 28.8262 124.806 31.1112 121.008 31.1112C116.636 31.1112 112.927 28.0791 112 23.9925H111.955ZM116.327 19.774H125.601C124.85 17.9723 123.039 16.698 120.964 16.698C118.888 16.698 117.078 17.9723 116.327 19.774Z" fill="#008FA6"/>
</g>
<g clip-path="url(#clip1_148_808)">
<path d="M173.182 26.8253C172.669 26.4004 172.498 25.8905 172.527 25.239C172.726 22.4062 177.573 15.6641 177.145 12.9163C177.088 12.5197 176.746 11.7549 176.433 11.7549H163.545C160.295 11.7549 157.929 24.4458 155.277 26.3438C151.97 28.695 142.789 25.8905 140.252 27.9018C139.311 28.6666 134.179 40.536 134.293 41.6125C134.35 42.0091 134.721 42.7456 135.006 42.7456H148.349C150.886 42.7456 154.194 27.7035 157.558 27.7035H169.533L170.16 28.4684C171.015 31.0462 166.197 37.9299 165.712 40.8193C165.627 41.4142 165.627 42.7456 166.311 42.7456H179.654C182.363 42.7456 187.495 32.0943 187.495 28.6666C186.383 25.5506 174.38 27.7602 173.182 26.8537V26.8253Z" fill="#5FECDC"/>
<path d="M191.942 16.6843C191.429 16.0044 187.894 16.1461 186.953 16.3444C184.701 16.8543 182.049 22.8881 183.389 23.7946C184.045 24.2478 187.58 24.0779 188.493 23.7946C190.431 23.1997 192.342 18.6106 191.971 16.6843H191.942Z" fill="#5FECDC"/>
</g>
<defs>
<clipPath id="clip0_148_808">
<rect width="131.443" height="30.9907" fill="white"/>
</clipPath>
<clipPath id="clip1_148_808">
<rect width="58.0299" height="30.9907" fill="white" transform="translate(133.97 11.7549)"/>
</clipPath>
</defs>
</svg>
