<svg width="881" height="732" viewBox="0 0 881 732" fill="none" xmlns="http://www.w3.org/2000/svg">
<g clip-path="url(#clip0_148_828)">
<path d="M273.148 562.59L598.553 237.185L705.606 130.132C711.265 124.473 717.395 120.228 724.468 117.869C744.743 109.847 768.785 114.083 784.81 130.107C801.305 146.602 805.54 170.645 797.048 190.449C794.217 197.05 790.443 203.651 784.784 209.31L686.22 307.875L666.413 327.682L658.395 335.699C622.554 371.541 614.994 424.346 634.309 468.184C635.251 470.07 636.194 471.955 637.136 473.841C639.492 478.083 641.376 482.797 644.204 486.568C648.445 492.695 653.157 498.351 658.813 504.007C666.354 511.548 674.367 516.731 682.851 522.386C683.794 523.328 685.208 523.799 686.151 523.799C732.345 549.242 790.335 543.095 829.006 504.424L1022.11 312.533C1006.09 298.395 989.59 284.728 974.037 270.118L783.761 459.179C778.102 464.838 771.972 469.083 764.9 471.443C744.625 479.464 720.582 475.229 704.558 459.204C688.062 442.709 683.827 418.666 692.32 398.863C695.15 392.262 698.924 385.66 704.583 380.001L728.163 356.421L802.676 281.908L814.466 270.118L829.557 255.027C865.399 219.185 873.902 166.38 854.586 122.541C851.76 115.942 848.462 109.814 844.221 103.687C839.979 97.5592 835.267 90.9605 829.612 85.3049C823.956 79.6493 817.829 74.4653 811.23 70.6959C765.038 39.595 700.919 44.33 659.89 85.3593L630.651 114.598L551.893 193.356L-5.68379 751.067L50.4076 785.465L273.148 562.59Z" fill="#5FECDC"/>
<circle cx="498.491" cy="289.781" r="18.5117" fill="#008FA6" stroke="#E5FFFC" stroke-width="6"/>
<circle cx="331.89" cy="459.128" r="18.5117" fill="#008FA6" stroke="#E5FFFC" stroke-width="6"/>
<circle cx="165.289" cy="623.898" r="18.5117" fill="#008FA6" stroke="#E5FFFC" stroke-width="6"/>
<circle cx="666.923" cy="123.18" r="18.5117" fill="#008FA6" stroke="#E5FFFC" stroke-width="6"/>
<circle cx="743.815" cy="297.104" r="18.5117" fill="#FFD833" stroke="white" stroke-width="6"/>
<circle cx="686.146" cy="481.098" r="18.5117" fill="#008FA6" stroke="#E5FFFC" stroke-width="6"/>
<path d="M563.501 419.5H639.668C650.069 419.5 658.501 427.932 658.501 438.333V459.5H563.501C552.455 459.5 543.501 450.546 543.501 439.5C543.501 428.454 552.455 419.5 563.501 419.5Z" fill="#E5FFFC"/>
<path d="M563.501 419.5H639.668C650.069 419.5 658.501 427.932 658.501 438.333V459.5H563.501C552.455 459.5 543.501 450.546 543.501 439.5C543.501 428.454 552.455 419.5 563.501 419.5Z" stroke="#5FECDC"/>
<path d="M567.524 442.54C567.591 442.913 567.737 443.24 567.964 443.52C568.191 443.8 568.484 444.02 568.844 444.18C569.217 444.327 569.651 444.4 570.144 444.4C570.917 444.4 571.497 444.227 571.884 443.88C572.271 443.52 572.464 443.087 572.464 442.58C572.464 442.18 572.344 441.847 572.104 441.58C571.864 441.313 571.524 441.087 571.084 440.9C570.657 440.713 570.157 440.533 569.584 440.36C569.051 440.2 568.524 440.027 568.004 439.84C567.484 439.653 567.011 439.42 566.584 439.14C566.157 438.86 565.817 438.5 565.564 438.06C565.324 437.607 565.204 437.04 565.204 436.36C565.204 435.507 565.411 434.78 565.824 434.18C566.251 433.58 566.831 433.127 567.564 432.82C568.297 432.513 569.144 432.36 570.104 432.36C570.917 432.36 571.651 432.48 572.304 432.72C572.957 432.947 573.504 433.287 573.944 433.74C574.397 434.18 574.731 434.727 574.944 435.38L572.444 436.06C572.377 435.767 572.231 435.513 572.004 435.3C571.777 435.087 571.504 434.92 571.184 434.8C570.864 434.667 570.517 434.6 570.144 434.6C569.744 434.587 569.377 434.647 569.044 434.78C568.711 434.913 568.444 435.107 568.244 435.36C568.044 435.613 567.944 435.907 567.944 436.24C567.944 436.613 568.057 436.913 568.284 437.14C568.511 437.353 568.811 437.54 569.184 437.7C569.557 437.847 569.977 437.993 570.444 438.14C571.004 438.3 571.564 438.487 572.124 438.7C572.684 438.9 573.197 439.16 573.664 439.48C574.131 439.787 574.504 440.18 574.784 440.66C575.077 441.14 575.224 441.747 575.224 442.48C575.224 443.253 575.037 443.953 574.664 444.58C574.304 445.207 573.757 445.707 573.024 446.08C572.291 446.453 571.371 446.64 570.264 446.64C569.357 446.64 568.531 446.507 567.784 446.24C567.051 445.973 566.444 445.587 565.964 445.08C565.484 444.56 565.171 443.947 565.024 443.24L567.524 442.54ZM586.06 446.5H583.72L583.54 445.46C583.22 445.833 582.827 446.127 582.36 446.34C581.907 446.54 581.42 446.64 580.9 446.64C580.127 446.64 579.46 446.473 578.9 446.14C578.34 445.807 577.907 445.327 577.6 444.7C577.293 444.06 577.14 443.273 577.14 442.34V436.5H579.72V442.02C579.72 442.78 579.867 443.36 580.16 443.76C580.467 444.147 580.933 444.34 581.56 444.34C582.173 444.34 582.647 444.14 582.98 443.74C583.327 443.34 583.5 442.76 583.5 442V436.5H586.06V446.5ZM590.751 445L591.071 444.96V450.5H588.511V436.5H590.831L590.991 437.74C591.284 437.353 591.697 437.027 592.231 436.76C592.764 436.493 593.377 436.36 594.071 436.36C594.937 436.36 595.704 436.573 596.371 437C597.037 437.427 597.557 438.027 597.931 438.8C598.317 439.56 598.511 440.46 598.511 441.5C598.511 442.54 598.317 443.447 597.931 444.22C597.557 444.993 597.037 445.593 596.371 446.02C595.717 446.433 594.951 446.64 594.071 446.64C593.297 446.64 592.624 446.48 592.051 446.16C591.491 445.84 591.057 445.453 590.751 445ZM595.751 441.5C595.751 440.66 595.531 439.987 595.091 439.48C594.664 438.96 594.104 438.7 593.411 438.7C592.984 438.7 592.591 438.813 592.231 439.04C591.884 439.253 591.604 439.567 591.391 439.98C591.177 440.38 591.071 440.887 591.071 441.5C591.071 442.1 591.177 442.607 591.391 443.02C591.604 443.433 591.884 443.753 592.231 443.98C592.591 444.193 592.984 444.3 593.411 444.3C594.104 444.3 594.664 444.047 595.091 443.54C595.531 443.02 595.751 442.34 595.751 441.5ZM602.704 445L603.024 444.96V450.5H600.464V436.5H602.784L602.944 437.74C603.237 437.353 603.65 437.027 604.184 436.76C604.717 436.493 605.33 436.36 606.024 436.36C606.89 436.36 607.657 436.573 608.324 437C608.99 437.427 609.51 438.027 609.884 438.8C610.27 439.56 610.464 440.46 610.464 441.5C610.464 442.54 610.27 443.447 609.884 444.22C609.51 444.993 608.99 445.593 608.324 446.02C607.67 446.433 606.904 446.64 606.024 446.64C605.25 446.64 604.577 446.48 604.004 446.16C603.444 445.84 603.01 445.453 602.704 445ZM607.704 441.5C607.704 440.66 607.484 439.987 607.044 439.48C606.617 438.96 606.057 438.7 605.364 438.7C604.937 438.7 604.544 438.813 604.184 439.04C603.837 439.253 603.557 439.567 603.344 439.98C603.13 440.38 603.024 440.887 603.024 441.5C603.024 442.1 603.13 442.607 603.344 443.02C603.557 443.433 603.837 443.753 604.184 443.98C604.544 444.193 604.937 444.3 605.364 444.3C606.057 444.3 606.617 444.047 607.044 443.54C607.484 443.02 607.704 442.34 607.704 441.5ZM616.957 446.64C615.983 446.64 615.117 446.433 614.357 446.02C613.597 445.593 612.997 445 612.557 444.24C612.13 443.467 611.917 442.56 611.917 441.52C611.917 440.467 612.137 439.553 612.577 438.78C613.03 438.007 613.643 437.413 614.417 437C615.19 436.573 616.057 436.36 617.017 436.36C617.977 436.36 618.843 436.573 619.617 437C620.39 437.413 621.003 438.007 621.457 438.78C621.91 439.54 622.137 440.44 622.137 441.48C622.137 442.533 621.903 443.447 621.437 444.22C620.983 444.993 620.363 445.593 619.577 446.02C618.803 446.433 617.93 446.64 616.957 446.64ZM616.937 444.34C617.35 444.34 617.743 444.24 618.117 444.04C618.49 443.827 618.797 443.513 619.037 443.1C619.277 442.673 619.397 442.133 619.397 441.48C619.397 440.853 619.283 440.333 619.057 439.92C618.83 439.493 618.53 439.18 618.157 438.98C617.797 438.767 617.403 438.66 616.977 438.66C616.563 438.66 616.177 438.767 615.817 438.98C615.47 439.18 615.19 439.493 614.977 439.92C614.777 440.333 614.677 440.867 614.677 441.52C614.677 442.147 614.777 442.673 614.977 443.1C615.177 443.513 615.45 443.827 615.797 444.04C616.143 444.24 616.523 444.34 616.937 444.34ZM624.096 436.5H626.416L626.596 437.78C626.876 437.433 627.19 437.153 627.536 436.94C627.896 436.713 628.29 436.56 628.716 436.48C629.143 436.387 629.59 436.393 630.056 436.5V438.9C629.696 438.78 629.316 438.747 628.916 438.8C628.53 438.853 628.163 438.993 627.816 439.22C627.483 439.447 627.203 439.773 626.976 440.2C626.763 440.613 626.656 441.14 626.656 441.78V446.5H624.096V436.5ZM632.414 436.5V433.7H635.014V436.5H637.214V438.76H635.014V442.82C635.014 443.34 635.121 443.707 635.334 443.92C635.561 444.133 635.841 444.247 636.174 444.26C636.521 444.273 636.867 444.253 637.214 444.2V446.4C636.601 446.533 636.001 446.573 635.414 446.52C634.841 446.467 634.327 446.313 633.874 446.06C633.421 445.793 633.061 445.393 632.794 444.86C632.541 444.327 632.414 443.647 632.414 442.82V438.76H630.994V436.5H632.414Z" fill="#008FA6"/>
<path d="M597.001 251.499C597.001 240.177 606.179 230.999 617.501 230.999H692.834C703.42 230.999 712.001 239.58 712.001 250.166V271.999H617.501C606.179 271.999 597.001 262.821 597.001 251.499Z" fill="#FFD833"/>
<path d="M627.846 248.819C627.846 248.192 627.652 247.692 627.266 247.319C626.892 246.946 626.306 246.759 625.506 246.759H622.526V250.899H625.506C626.039 250.899 626.479 250.819 626.826 250.659C627.172 250.486 627.426 250.246 627.586 249.939C627.759 249.619 627.846 249.246 627.846 248.819ZM625.586 244.499C626.719 244.499 627.652 244.699 628.386 245.099C629.132 245.486 629.686 246.012 630.046 246.679C630.419 247.332 630.606 248.046 630.606 248.819C630.606 249.339 630.512 249.859 630.326 250.379C630.139 250.886 629.846 251.352 629.446 251.779C629.046 252.192 628.526 252.526 627.886 252.779C627.259 253.032 626.492 253.159 625.586 253.159H622.526V258.499H619.826V244.499H625.586ZM627.106 252.259L630.886 258.499H627.866L624.246 252.259H627.106ZM637.371 258.639C636.371 258.639 635.491 258.419 634.731 257.979C633.971 257.539 633.377 256.926 632.951 256.139C632.537 255.352 632.331 254.446 632.331 253.419C632.331 252.432 632.537 251.559 632.951 250.799C633.364 250.039 633.937 249.446 634.671 249.019C635.417 248.579 636.264 248.359 637.211 248.359C638.171 248.359 639.017 248.566 639.751 248.979C640.484 249.392 641.051 249.972 641.451 250.719C641.864 251.452 642.071 252.312 642.071 253.299C642.071 253.446 642.057 253.612 642.031 253.799C642.017 253.972 641.997 254.159 641.971 254.359H635.091C635.144 254.786 635.277 255.152 635.491 255.459C635.717 255.752 635.991 255.986 636.311 256.159C636.644 256.319 637.017 256.399 637.431 256.399C637.924 256.399 638.364 256.299 638.751 256.099C639.151 255.886 639.437 255.612 639.611 255.279L641.891 255.959C641.491 256.812 640.891 257.472 640.091 257.939C639.304 258.406 638.397 258.639 637.371 258.639ZM639.271 252.499C639.257 252.126 639.157 251.792 638.971 251.499C638.784 251.192 638.537 250.959 638.231 250.799C637.924 250.626 637.584 250.539 637.211 250.539C636.877 250.539 636.564 250.626 636.271 250.799C635.977 250.972 635.724 251.206 635.511 251.499C635.311 251.779 635.177 252.112 635.111 252.499H639.271ZM644.022 244.099H646.582V258.499H644.022V244.099ZM653.582 258.639C652.582 258.639 651.702 258.419 650.942 257.979C650.182 257.539 649.588 256.926 649.162 256.139C648.748 255.352 648.542 254.446 648.542 253.419C648.542 252.432 648.748 251.559 649.162 250.799C649.575 250.039 650.148 249.446 650.882 249.019C651.628 248.579 652.475 248.359 653.422 248.359C654.382 248.359 655.228 248.566 655.962 248.979C656.695 249.392 657.262 249.972 657.662 250.719C658.075 251.452 658.282 252.312 658.282 253.299C658.282 253.446 658.268 253.612 658.242 253.799C658.228 253.972 658.208 254.159 658.182 254.359H651.302C651.355 254.786 651.488 255.152 651.702 255.459C651.928 255.752 652.202 255.986 652.522 256.159C652.855 256.319 653.228 256.399 653.642 256.399C654.135 256.399 654.575 256.299 654.962 256.099C655.362 255.886 655.648 255.612 655.822 255.279L658.102 255.959C657.702 256.812 657.102 257.472 656.302 257.939C655.515 258.406 654.608 258.639 653.582 258.639ZM655.482 252.499C655.468 252.126 655.368 251.792 655.182 251.499C654.995 251.192 654.748 250.959 654.442 250.799C654.135 250.626 653.795 250.539 653.422 250.539C653.088 250.539 652.775 250.626 652.482 250.799C652.188 250.972 651.935 251.206 651.722 251.499C651.522 251.779 651.388 252.112 651.322 252.499H655.482ZM666.113 258.499L665.913 257.279C665.58 257.692 665.2 258.019 664.773 258.259C664.36 258.499 663.8 258.619 663.093 258.619C662.426 258.619 661.84 258.506 661.333 258.279C660.84 258.039 660.453 257.712 660.173 257.299C659.893 256.872 659.753 256.372 659.753 255.799C659.753 254.959 660.053 254.266 660.653 253.719C661.266 253.159 662.186 252.806 663.413 252.659L665.913 252.379V251.679C665.913 251.399 665.786 251.139 665.533 250.899C665.28 250.659 664.88 250.539 664.333 250.539C663.853 250.539 663.433 250.659 663.073 250.899C662.726 251.126 662.493 251.472 662.373 251.939L660.173 251.139C660.44 250.246 660.946 249.559 661.693 249.079C662.44 248.599 663.36 248.359 664.453 248.359C665.786 248.359 666.786 248.692 667.453 249.359C668.133 250.012 668.473 250.879 668.473 251.959V258.499H666.113ZM665.913 254.159L663.753 254.439C663.313 254.492 662.98 254.626 662.753 254.839C662.526 255.039 662.413 255.286 662.413 255.579C662.413 255.859 662.526 256.099 662.753 256.299C662.98 256.486 663.3 256.579 663.713 256.579C664.18 256.579 664.573 256.492 664.893 256.319C665.226 256.146 665.48 255.892 665.653 255.559C665.826 255.226 665.913 254.812 665.913 254.319V254.159ZM672.619 255.239C672.699 255.572 672.832 255.826 673.019 255.999C673.219 256.172 673.439 256.299 673.679 256.379C673.932 256.446 674.186 256.479 674.439 256.479C674.906 256.479 675.272 256.392 675.539 256.219C675.806 256.032 675.939 255.799 675.939 255.519C675.939 255.279 675.846 255.092 675.659 254.959C675.472 254.812 675.232 254.706 674.939 254.639C674.646 254.559 674.346 254.479 674.039 254.399C673.679 254.306 673.292 254.206 672.879 254.099C672.479 253.979 672.099 253.812 671.739 253.599C671.379 253.386 671.079 253.112 670.839 252.779C670.599 252.432 670.479 251.999 670.479 251.479C670.479 250.866 670.646 250.326 670.979 249.859C671.326 249.392 671.799 249.026 672.399 248.759C673.012 248.492 673.719 248.359 674.519 248.359C675.466 248.359 676.266 248.559 676.919 248.959C677.572 249.359 678.046 249.932 678.339 250.679L676.079 251.319C676.012 251.132 675.899 250.979 675.739 250.859C675.579 250.739 675.386 250.652 675.159 250.599C674.946 250.546 674.726 250.519 674.499 250.519C674.112 250.519 673.792 250.599 673.539 250.759C673.286 250.906 673.159 251.112 673.159 251.379C673.159 251.539 673.206 251.672 673.299 251.779C673.392 251.872 673.519 251.952 673.679 252.019C673.852 252.086 674.046 252.146 674.259 252.199C674.486 252.252 674.732 252.312 674.999 252.379C675.412 252.486 675.826 252.612 676.239 252.759C676.666 252.892 677.052 253.066 677.399 253.279C677.759 253.492 678.046 253.779 678.259 254.139C678.472 254.499 678.592 254.952 678.619 255.499C678.619 256.086 678.452 256.619 678.119 257.099C677.786 257.566 677.306 257.939 676.679 258.219C676.052 258.499 675.292 258.639 674.399 258.639C673.359 258.639 672.472 258.419 671.739 257.979C671.019 257.539 670.546 256.852 670.319 255.919L672.619 255.239ZM685.125 258.639C684.125 258.639 683.245 258.419 682.485 257.979C681.725 257.539 681.131 256.926 680.705 256.139C680.291 255.352 680.085 254.446 680.085 253.419C680.085 252.432 680.291 251.559 680.705 250.799C681.118 250.039 681.691 249.446 682.425 249.019C683.171 248.579 684.018 248.359 684.965 248.359C685.925 248.359 686.771 248.566 687.505 248.979C688.238 249.392 688.805 249.972 689.205 250.719C689.618 251.452 689.825 252.312 689.825 253.299C689.825 253.446 689.811 253.612 689.785 253.799C689.771 253.972 689.751 254.159 689.725 254.359H682.845C682.898 254.786 683.031 255.152 683.245 255.459C683.471 255.752 683.745 255.986 684.065 256.159C684.398 256.319 684.771 256.399 685.185 256.399C685.678 256.399 686.118 256.299 686.505 256.099C686.905 255.886 687.191 255.612 687.365 255.279L689.645 255.959C689.245 256.812 688.645 257.472 687.845 257.939C687.058 258.406 686.151 258.639 685.125 258.639ZM687.025 252.499C687.011 252.126 686.911 251.792 686.725 251.499C686.538 251.192 686.291 250.959 685.985 250.799C685.678 250.626 685.338 250.539 684.965 250.539C684.631 250.539 684.318 250.626 684.025 250.799C683.731 250.972 683.478 251.206 683.265 251.499C683.065 251.779 682.931 252.112 682.865 252.499H687.025Z" fill="#008FA6"/>
</g>
<defs>
<clipPath id="clip0_148_828">
<rect width="1053.94" height="415.907" fill="white" transform="translate(1039.34 294.09) rotate(135)"/>
</clipPath>
</defs>
</svg>
