<svg width="881" height="732" viewBox="0 0 881 732" fill="none" xmlns="http://www.w3.org/2000/svg">
<g clip-path="url(#clip0_297_564)">
<path d="M273.148 562.59L598.553 237.185L705.606 130.132C711.265 124.473 717.395 120.228 724.468 117.869C744.743 109.847 768.785 114.083 784.81 130.107C801.305 146.602 805.54 170.645 797.048 190.449C794.217 197.05 790.443 203.651 784.784 209.31L686.22 307.875L666.413 327.682L658.395 335.699C622.554 371.541 614.994 424.346 634.309 468.184C635.251 470.07 636.194 471.955 637.136 473.841C639.492 478.083 641.376 482.797 644.204 486.568C648.445 492.695 653.157 498.351 658.813 504.007C666.354 511.548 674.367 516.731 682.851 522.386C683.794 523.328 685.208 523.799 686.151 523.799C732.345 549.242 790.335 543.095 829.006 504.424L1022.11 312.533C1006.09 298.395 989.59 284.728 974.037 270.118L783.761 459.179C778.102 464.838 771.972 469.083 764.9 471.443C744.625 479.464 720.582 475.229 704.558 459.204C688.062 442.709 683.827 418.666 692.32 398.863C695.15 392.262 698.924 385.66 704.583 380.001L728.163 356.421L802.676 281.908L814.466 270.118L829.557 255.027C865.399 219.185 873.902 166.38 854.586 122.541C851.76 115.942 848.462 109.814 844.221 103.687C839.979 97.5592 835.267 90.9605 829.612 85.3049C823.956 79.6493 817.829 74.4653 811.23 70.6959C765.038 39.595 700.919 44.33 659.89 85.3593L630.651 114.598L551.893 193.356L-5.68379 751.067L50.4076 785.465L273.148 562.59Z" fill="#5FECDC"/>
<circle cx="498.491" cy="289.781" r="18.5117" fill="#008FA6" stroke="#E5FFFC" stroke-width="6"/>
<circle cx="331.89" cy="459.128" r="18.5117" fill="#008FA6" stroke="#E5FFFC" stroke-width="6"/>
<circle cx="165.289" cy="623.898" r="18.5117" fill="#008FA6" stroke="#E5FFFC" stroke-width="6"/>
<circle cx="666.923" cy="123.18" r="18.5117" fill="#008FA6" stroke="#E5FFFC" stroke-width="6"/>
<circle cx="743.815" cy="297.104" r="18.5117" fill="#FFD833" stroke="white" stroke-width="6"/>
<circle cx="686.146" cy="481.098" r="18.5117" fill="#008FA6" stroke="#E5FFFC" stroke-width="6"/>
<path d="M563.501 419.5H639.668C650.069 419.5 658.501 427.932 658.501 438.333V459.5H563.501C552.455 459.5 543.501 450.546 543.501 439.5C543.501 428.454 552.455 419.5 563.501 419.5Z" fill="#E5FFFC"/>
<path d="M563.501 419.5H639.668C650.069 419.5 658.501 427.932 658.501 438.333V459.5H563.501C552.455 459.5 543.501 450.546 543.501 439.5C543.501 428.454 552.455 419.5 563.501 419.5Z" stroke="#5FECDC"/>
<path d="M567.524 442.54C567.591 442.913 567.737 443.24 567.964 443.52C568.191 443.8 568.484 444.02 568.844 444.18C569.217 444.327 569.651 444.4 570.144 444.4C570.917 444.4 571.497 444.227 571.884 443.88C572.271 443.52 572.464 443.087 572.464 442.58C572.464 442.18 572.344 441.847 572.104 441.58C571.864 441.313 571.524 441.087 571.084 440.9C570.657 440.713 570.157 440.533 569.584 440.36C569.051 440.2 568.524 440.027 568.004 439.84C567.484 439.653 567.011 439.42 566.584 439.14C566.157 438.86 565.817 438.5 565.564 438.06C565.324 437.607 565.204 437.04 565.204 436.36C565.204 435.507 565.411 434.78 565.824 434.18C566.251 433.58 566.831 433.127 567.564 432.82C568.297 432.513 569.144 432.36 570.104 432.36C570.917 432.36 571.651 432.48 572.304 432.72C572.957 432.947 573.504 433.287 573.944 433.74C574.397 434.18 574.731 434.727 574.944 435.38L572.444 436.06C572.377 435.767 572.231 435.513 572.004 435.3C571.777 435.087 571.504 434.92 571.184 434.8C570.864 434.667 570.517 434.6 570.144 434.6C569.744 434.587 569.377 434.647 569.044 434.78C568.711 434.913 568.444 435.107 568.244 435.36C568.044 435.613 567.944 435.907 567.944 436.24C567.944 436.613 568.057 436.913 568.284 437.14C568.511 437.353 568.811 437.54 569.184 437.7C569.557 437.847 569.977 437.993 570.444 438.14C571.004 438.3 571.564 438.487 572.124 438.7C572.684 438.9 573.197 439.16 573.664 439.48C574.131 439.787 574.504 440.18 574.784 440.66C575.077 441.14 575.224 441.747 575.224 442.48C575.224 443.253 575.037 443.953 574.664 444.58C574.304 445.207 573.757 445.707 573.024 446.08C572.291 446.453 571.371 446.64 570.264 446.64C569.357 446.64 568.531 446.507 567.784 446.24C567.051 445.973 566.444 445.587 565.964 445.08C565.484 444.56 565.171 443.947 565.024 443.24L567.524 442.54ZM586.06 446.5H583.72L583.54 445.46C583.22 445.833 582.827 446.127 582.36 446.34C581.907 446.54 581.42 446.64 580.9 446.64C580.127 446.64 579.46 446.473 578.9 446.14C578.34 445.807 577.907 445.327 577.6 444.7C577.293 444.06 577.14 443.273 577.14 442.34V436.5H579.72V442.02C579.72 442.78 579.867 443.36 580.16 443.76C580.467 444.147 580.933 444.34 581.56 444.34C582.173 444.34 582.647 444.14 582.98 443.74C583.327 443.34 583.5 442.76 583.5 442V436.5H586.06V446.5ZM590.751 445L591.071 444.96V450.5H588.511V436.5H590.831L590.991 437.74C591.284 437.353 591.697 437.027 592.231 436.76C592.764 436.493 593.377 436.36 594.071 436.36C594.937 436.36 595.704 436.573 596.371 437C597.037 437.427 597.557 438.027 597.931 438.8C598.317 439.56 598.511 440.46 598.511 441.5C598.511 442.54 598.317 443.447 597.931 444.22C597.557 444.993 597.037 445.593 596.371 446.02C595.717 446.433 594.951 446.64 594.071 446.64C593.297 446.64 592.624 446.48 592.051 446.16C591.491 445.84 591.057 445.453 590.751 445ZM595.751 441.5C595.751 440.66 595.531 439.987 595.091 439.48C594.664 438.96 594.104 438.7 593.411 438.7C592.984 438.7 592.591 438.813 592.231 439.04C591.884 439.253 591.604 439.567 591.391 439.98C591.177 440.38 591.071 440.887 591.071 441.5C591.071 442.1 591.177 442.607 591.391 443.02C591.604 443.433 591.884 443.753 592.231 443.98C592.591 444.193 592.984 444.3 593.411 444.3C594.104 444.3 594.664 444.047 595.091 443.54C595.531 443.02 595.751 442.34 595.751 441.5ZM602.704 445L603.024 444.96V450.5H600.464V436.5H602.784L602.944 437.74C603.237 437.353 603.65 437.027 604.184 436.76C604.717 436.493 605.33 436.36 606.024 436.36C606.89 436.36 607.657 436.573 608.324 437C608.99 437.427 609.51 438.027 609.884 438.8C610.27 439.56 610.464 440.46 610.464 441.5C610.464 442.54 610.27 443.447 609.884 444.22C609.51 444.993 608.99 445.593 608.324 446.02C607.67 446.433 606.904 446.64 606.024 446.64C605.25 446.64 604.577 446.48 604.004 446.16C603.444 445.84 603.01 445.453 602.704 445ZM607.704 441.5C607.704 440.66 607.484 439.987 607.044 439.48C606.617 438.96 606.057 438.7 605.364 438.7C604.937 438.7 604.544 438.813 604.184 439.04C603.837 439.253 603.557 439.567 603.344 439.98C603.13 440.38 603.024 440.887 603.024 441.5C603.024 442.1 603.13 442.607 603.344 443.02C603.557 443.433 603.837 443.753 604.184 443.98C604.544 444.193 604.937 444.3 605.364 444.3C606.057 444.3 606.617 444.047 607.044 443.54C607.484 443.02 607.704 442.34 607.704 441.5ZM616.957 446.64C615.983 446.64 615.117 446.433 614.357 446.02C613.597 445.593 612.997 445 612.557 444.24C612.13 443.467 611.917 442.56 611.917 441.52C611.917 440.467 612.137 439.553 612.577 438.78C613.03 438.007 613.643 437.413 614.417 437C615.19 436.573 616.057 436.36 617.017 436.36C617.977 436.36 618.843 436.573 619.617 437C620.39 437.413 621.003 438.007 621.457 438.78C621.91 439.54 622.137 440.44 622.137 441.48C622.137 442.533 621.903 443.447 621.437 444.22C620.983 444.993 620.363 445.593 619.577 446.02C618.803 446.433 617.93 446.64 616.957 446.64ZM616.937 444.34C617.35 444.34 617.743 444.24 618.117 444.04C618.49 443.827 618.797 443.513 619.037 443.1C619.277 442.673 619.397 442.133 619.397 441.48C619.397 440.853 619.283 440.333 619.057 439.92C618.83 439.493 618.53 439.18 618.157 438.98C617.797 438.767 617.403 438.66 616.977 438.66C616.563 438.66 616.177 438.767 615.817 438.98C615.47 439.18 615.19 439.493 614.977 439.92C614.777 440.333 614.677 440.867 614.677 441.52C614.677 442.147 614.777 442.673 614.977 443.1C615.177 443.513 615.45 443.827 615.797 444.04C616.143 444.24 616.523 444.34 616.937 444.34ZM624.096 436.5H626.416L626.596 437.78C626.876 437.433 627.19 437.153 627.536 436.94C627.896 436.713 628.29 436.56 628.716 436.48C629.143 436.387 629.59 436.393 630.056 436.5V438.9C629.696 438.78 629.316 438.747 628.916 438.8C628.53 438.853 628.163 438.993 627.816 439.22C627.483 439.447 627.203 439.773 626.976 440.2C626.763 440.613 626.656 441.14 626.656 441.78V446.5H624.096V436.5ZM632.414 436.5V433.7H635.014V436.5H637.214V438.76H635.014V442.82C635.014 443.34 635.121 443.707 635.334 443.92C635.561 444.133 635.841 444.247 636.174 444.26C636.521 444.273 636.867 444.253 637.214 444.2V446.4C636.601 446.533 636.001 446.573 635.414 446.52C634.841 446.467 634.327 446.313 633.874 446.06C633.421 445.793 633.061 445.393 632.794 444.86C632.541 444.327 632.414 443.647 632.414 442.82V438.76H630.994V436.5H632.414Z" fill="#008FA6"/>
<path d="M597.001 251.499C597.001 240.177 606.179 230.999 617.501 230.999H692.834C703.42 230.999 712.001 239.58 712.001 250.166V271.999H617.501C606.179 271.999 597.001 262.821 597.001 251.499Z" fill="#FFD833"/>
<path d="M627.846 248.819C627.846 248.192 627.652 247.692 627.266 247.319C626.892 246.946 626.306 246.759 625.506 246.759H622.526V250.899H625.506C626.039 250.899 626.479 250.819 626.826 250.659C627.172 250.486 627.426 250.246 627.586 249.939C627.759 249.619 627.846 249.246 627.846 248.819ZM625.586 244.499C626.719 244.499 627.652 244.699 628.386 245.099C629.132 245.486 629.686 246.012 630.046 246.679C630.419 247.332 630.606 248.046 630.606 248.819C630.606 249.339 630.512 249.859 630.326 250.379C630.139 250.886 629.846 251.352 629.446 251.779C629.046 252.192 628.526 252.526 627.886 252.779C627.259 253.032 626.492 253.159 625.586 253.159H622.526V258.499H619.826V244.499H625.586ZM627.106 252.259L630.886 258.499H627.866L624.246 252.259H627.106ZM637.371 258.639C636.371 258.639 635.491 258.419 634.731 257.979C633.971 257.539 633.377 256.926 632.951 256.139C632.537 255.352 632.331 254.446 632.331 253.419C632.331 252.432 632.537 251.559 632.951 250.799C633.364 250.039 633.937 249.446 634.671 249.019C635.417 248.579 636.264 248.359 637.211 248.359C638.171 248.359 639.017 248.566 639.751 248.979C640.484 249.392 641.051 249.972 641.451 250.719C641.864 251.452 642.071 252.312 642.071 253.299C642.071 253.446 642.057 253.612 642.031 253.799C642.017 253.972 641.997 254.159 641.971 254.359H635.091C635.144 254.786 635.277 255.152 635.491 255.459C635.717 255.752 635.991 255.986 636.311 256.159C636.644 256.319 637.017 256.399 637.431 256.399C637.924 256.399 638.364 256.299 638.751 256.099C639.151 255.886 639.437 255.612 639.611 255.279L641.891 255.959C641.491 256.812 640.891 257.472 640.091 257.939C639.304 258.406 638.397 258.639 637.371 258.639ZM639.271 252.499C639.257 252.126 639.157 251.792 638.971 251.499C638.784 251.192 638.537 250.959 638.231 250.799C637.924 250.626 637.584 250.539 637.211 250.539C636.877 250.539 636.564 250.626 636.271 250.799C635.977 250.972 635.724 251.206 635.511 251.499C635.311 251.779 635.177 252.112 635.111 252.499H639.271ZM644.022 244.099H646.582V258.499H644.022V244.099ZM653.582 258.639C652.582 258.639 651.702 258.419 650.942 257.979C650.182 257.539 649.588 256.926 649.162 256.139C648.748 255.352 648.542 254.446 648.542 253.419C648.542 252.432 648.748 251.559 649.162 250.799C649.575 250.039 650.148 249.446 650.882 249.019C651.628 248.579 652.475 248.359 653.422 248.359C654.382 248.359 655.228 248.566 655.962 248.979C656.695 249.392 657.262 249.972 657.662 250.719C658.075 251.452 658.282 252.312 658.282 253.299C658.282 253.446 658.268 253.612 658.242 253.799C658.228 253.972 658.208 254.159 658.182 254.359H651.302C651.355 254.786 651.488 255.152 651.702 255.459C651.928 255.752 652.202 255.986 652.522 256.159C652.855 256.319 653.228 256.399 653.642 256.399C654.135 256.399 654.575 256.299 654.962 256.099C655.362 255.886 655.648 255.612 655.822 255.279L658.102 255.959C657.702 256.812 657.102 257.472 656.302 257.939C655.515 258.406 654.608 258.639 653.582 258.639ZM655.482 252.499C655.468 252.126 655.368 251.792 655.182 251.499C654.995 251.192 654.748 250.959 654.442 250.799C654.135 250.626 653.795 250.539 653.422 250.539C653.088 250.539 652.775 250.626 652.482 250.799C652.188 250.972 651.935 251.206 651.722 251.499C651.522 251.779 651.388 252.112 651.322 252.499H655.482ZM666.113 258.499L665.913 257.279C665.58 257.692 665.2 258.019 664.773 258.259C664.36 258.499 663.8 258.619 663.093 258.619C662.426 258.619 661.84 258.506 661.333 258.279C660.84 258.039 660.453 257.712 660.173 257.299C659.893 256.872 659.753 256.372 659.753 255.799C659.753 254.959 660.053 254.266 660.653 253.719C661.266 253.159 662.186 252.806 663.413 252.659L665.913 252.379V251.679C665.913 251.399 665.786 251.139 665.533 250.899C665.28 250.659 664.88 250.539 664.333 250.539C663.853 250.539 663.433 250.659 663.073 250.899C662.726 251.126 662.493 251.472 662.373 251.939L660.173 251.139C660.44 250.246 660.946 249.559 661.693 249.079C662.44 248.599 663.36 248.359 664.453 248.359C665.786 248.359 666.786 248.692 667.453 249.359C668.133 250.012 668.473 250.879 668.473 251.959V258.499H666.113ZM665.913 254.159L663.753 254.439C663.313 254.492 662.98 254.626 662.753 254.839C662.526 255.039 662.413 255.286 662.413 255.579C662.413 255.859 662.526 256.099 662.753 256.299C662.98 256.486 663.3 256.579 663.713 256.579C664.18 256.579 664.573 256.492 664.893 256.319C665.226 256.146 665.48 255.892 665.653 255.559C665.826 255.226 665.913 254.812 665.913 254.319V254.159ZM672.619 255.239C672.699 255.572 672.832 255.826 673.019 255.999C673.219 256.172 673.439 256.299 673.679 256.379C673.932 256.446 674.186 256.479 674.439 256.479C674.906 256.479 675.272 256.392 675.539 256.219C675.806 256.032 675.939 255.799 675.939 255.519C675.939 255.279 675.846 255.092 675.659 254.959C675.472 254.812 675.232 254.706 674.939 254.639C674.646 254.559 674.346 254.479 674.039 254.399C673.679 254.306 673.292 254.206 672.879 254.099C672.479 253.979 672.099 253.812 671.739 253.599C671.379 253.386 671.079 253.112 670.839 252.779C670.599 252.432 670.479 251.999 670.479 251.479C670.479 250.866 670.646 250.326 670.979 249.859C671.326 249.392 671.799 249.026 672.399 248.759C673.012 248.492 673.719 248.359 674.519 248.359C675.466 248.359 676.266 248.559 676.919 248.959C677.572 249.359 678.046 249.932 678.339 250.679L676.079 251.319C676.012 251.132 675.899 250.979 675.739 250.859C675.579 250.739 675.386 250.652 675.159 250.599C674.946 250.546 674.726 250.519 674.499 250.519C674.112 250.519 673.792 250.599 673.539 250.759C673.286 250.906 673.159 251.112 673.159 251.379C673.159 251.539 673.206 251.672 673.299 251.779C673.392 251.872 673.519 251.952 673.679 252.019C673.852 252.086 674.046 252.146 674.259 252.199C674.486 252.252 674.732 252.312 674.999 252.379C675.412 252.486 675.826 252.612 676.239 252.759C676.666 252.892 677.052 253.066 677.399 253.279C677.759 253.492 678.046 253.779 678.259 254.139C678.472 254.499 678.592 254.952 678.619 255.499C678.619 256.086 678.452 256.619 678.119 257.099C677.786 257.566 677.306 257.939 676.679 258.219C676.052 258.499 675.292 258.639 674.399 258.639C673.359 258.639 672.472 258.419 671.739 257.979C671.019 257.539 670.546 256.852 670.319 255.919L672.619 255.239ZM685.125 258.639C684.125 258.639 683.245 258.419 682.485 257.979C681.725 257.539 681.131 256.926 680.705 256.139C680.291 255.352 680.085 254.446 680.085 253.419C680.085 252.432 680.291 251.559 680.705 250.799C681.118 250.039 681.691 249.446 682.425 249.019C683.171 248.579 684.018 248.359 684.965 248.359C685.925 248.359 686.771 248.566 687.505 248.979C688.238 249.392 688.805 249.972 689.205 250.719C689.618 251.452 689.825 252.312 689.825 253.299C689.825 253.446 689.811 253.612 689.785 253.799C689.771 253.972 689.751 254.159 689.725 254.359H682.845C682.898 254.786 683.031 255.152 683.245 255.459C683.471 255.752 683.745 255.986 684.065 256.159C684.398 256.319 684.771 256.399 685.185 256.399C685.678 256.399 686.118 256.299 686.505 256.099C686.905 255.886 687.191 255.612 687.365 255.279L689.645 255.959C689.245 256.812 688.645 257.472 687.845 257.939C687.058 258.406 686.151 258.639 685.125 258.639ZM687.025 252.499C687.011 252.126 686.911 251.792 686.725 251.499C686.538 251.192 686.291 250.959 685.985 250.799C685.678 250.626 685.338 250.539 684.965 250.539C684.631 250.539 684.318 250.626 684.025 250.799C683.731 250.972 683.478 251.206 683.265 251.499C683.065 251.779 682.931 252.112 682.865 252.499H687.025Z" fill="#008FA6"/>
</g>
<path d="M29 562.5H99C108.665 562.5 116.5 570.335 116.5 580V601.5H29C18.2304 601.5 9.5 592.77 9.5 582C9.5 571.23 18.2304 562.5 29 562.5Z" fill="#E5FFFC"/>
<path d="M29 562.5H99C108.665 562.5 116.5 570.335 116.5 580V601.5H29C18.2304 601.5 9.5 592.77 9.5 582C9.5 571.23 18.2304 562.5 29 562.5Z" stroke="#5FECDC"/>
<path d="M26.8112 575H29.5112V589H26.8112V575ZM39.3809 580.5L39.0609 580.54V574.6H41.6209V589H39.3009L39.1409 587.76C38.8209 588.133 38.3942 588.46 37.8609 588.74C37.3409 589.007 36.7342 589.14 36.0409 589.14C35.1742 589.14 34.4075 588.927 33.7409 588.5C33.0742 588.073 32.5542 587.48 32.1809 586.72C31.8075 585.947 31.6209 585.04 31.6209 584C31.6209 582.96 31.8075 582.053 32.1809 581.28C32.5542 580.507 33.0742 579.913 33.7409 579.5C34.4075 579.073 35.1742 578.86 36.0409 578.86C36.8275 578.86 37.5009 579.02 38.0609 579.34C38.6342 579.66 39.0742 580.047 39.3809 580.5ZM34.3809 584C34.3809 584.84 34.5942 585.52 35.0209 586.04C35.4475 586.547 36.0075 586.8 36.7009 586.8C37.1275 586.8 37.5142 586.693 37.8609 586.48C38.2209 586.253 38.5075 585.933 38.7209 585.52C38.9475 585.107 39.0609 584.6 39.0609 584C39.0609 583.4 38.9475 582.893 38.7209 582.48C38.5075 582.067 38.2209 581.753 37.8609 581.54C37.5142 581.313 37.1275 581.2 36.7009 581.2C36.0075 581.2 35.4475 581.46 35.0209 581.98C34.5942 582.487 34.3809 583.16 34.3809 584ZM48.614 589.14C47.614 589.14 46.734 588.92 45.974 588.48C45.214 588.04 44.6207 587.427 44.194 586.64C43.7807 585.853 43.574 584.947 43.574 583.92C43.574 582.933 43.7807 582.06 44.194 581.3C44.6073 580.54 45.1807 579.947 45.914 579.52C46.6607 579.08 47.5073 578.86 48.454 578.86C49.414 578.86 50.2607 579.067 50.994 579.48C51.7273 579.893 52.294 580.473 52.694 581.22C53.1073 581.953 53.314 582.813 53.314 583.8C53.314 583.947 53.3007 584.113 53.274 584.3C53.2607 584.473 53.2407 584.66 53.214 584.86H46.334C46.3873 585.287 46.5207 585.653 46.734 585.96C46.9607 586.253 47.234 586.487 47.554 586.66C47.8873 586.82 48.2607 586.9 48.674 586.9C49.1673 586.9 49.6073 586.8 49.994 586.6C50.394 586.387 50.6807 586.113 50.854 585.78L53.134 586.46C52.734 587.313 52.134 587.973 51.334 588.44C50.5473 588.907 49.6407 589.14 48.614 589.14ZM50.514 583C50.5007 582.627 50.4007 582.293 50.214 582C50.0273 581.693 49.7807 581.46 49.474 581.3C49.1673 581.127 48.8273 581.04 48.454 581.04C48.1207 581.04 47.8073 581.127 47.514 581.3C47.2207 581.473 46.9673 581.707 46.754 582C46.554 582.28 46.4207 582.613 46.354 583H50.514ZM61.1454 589L60.9454 587.78C60.6121 588.193 60.2321 588.52 59.8054 588.76C59.3921 589 58.8321 589.12 58.1254 589.12C57.4587 589.12 56.8721 589.007 56.3654 588.78C55.8721 588.54 55.4854 588.213 55.2054 587.8C54.9254 587.373 54.7854 586.873 54.7854 586.3C54.7854 585.46 55.0854 584.767 55.6854 584.22C56.2987 583.66 57.2187 583.307 58.4454 583.16L60.9454 582.88V582.18C60.9454 581.9 60.8187 581.64 60.5654 581.4C60.3121 581.16 59.9121 581.04 59.3654 581.04C58.8854 581.04 58.4654 581.16 58.1054 581.4C57.7587 581.627 57.5254 581.973 57.4054 582.44L55.2054 581.64C55.4721 580.747 55.9787 580.06 56.7254 579.58C57.4721 579.1 58.3921 578.86 59.4854 578.86C60.8187 578.86 61.8187 579.193 62.4854 579.86C63.1654 580.513 63.5054 581.38 63.5054 582.46V589H61.1454ZM60.9454 584.66L58.7854 584.94C58.3454 584.993 58.0121 585.127 57.7854 585.34C57.5587 585.54 57.4454 585.787 57.4454 586.08C57.4454 586.36 57.5587 586.6 57.7854 586.8C58.0121 586.987 58.3321 587.08 58.7454 587.08C59.2121 587.08 59.6054 586.993 59.9254 586.82C60.2587 586.647 60.5121 586.393 60.6854 586.06C60.8587 585.727 60.9454 585.313 60.9454 584.82V584.66ZM66.5713 579V576.2H69.1713V579H71.3713V581.26H69.1713V585.32C69.1713 585.84 69.278 586.207 69.4913 586.42C69.718 586.633 69.998 586.747 70.3313 586.76C70.678 586.773 71.0247 586.753 71.3713 586.7V588.9C70.758 589.033 70.158 589.073 69.5713 589.02C68.998 588.967 68.4847 588.813 68.0313 588.56C67.578 588.293 67.218 587.893 66.9513 587.36C66.698 586.827 66.5713 586.147 66.5713 585.32V581.26H65.1513V579H66.5713ZM73.5351 579H76.0951V589H73.5351V579ZM74.8351 577.72C74.3551 577.72 73.9617 577.573 73.6551 577.28C73.3484 576.973 73.1951 576.6 73.1951 576.16C73.1951 575.72 73.3484 575.353 73.6551 575.06C73.9617 574.753 74.3551 574.6 74.8351 574.6C75.2884 574.6 75.6684 574.753 75.9751 575.06C76.2951 575.353 76.4551 575.72 76.4551 576.16C76.4551 576.6 76.2951 576.973 75.9751 577.28C75.6684 577.573 75.2884 577.72 74.8351 577.72ZM83.4382 589.14C82.4649 589.14 81.5982 588.933 80.8382 588.52C80.0782 588.093 79.4782 587.5 79.0382 586.74C78.6115 585.967 78.3982 585.06 78.3982 584.02C78.3982 582.967 78.6182 582.053 79.0582 581.28C79.5115 580.507 80.1249 579.913 80.8982 579.5C81.6715 579.073 82.5382 578.86 83.4982 578.86C84.4582 578.86 85.3249 579.073 86.0982 579.5C86.8715 579.913 87.4849 580.507 87.9382 581.28C88.3915 582.04 88.6182 582.94 88.6182 583.98C88.6182 585.033 88.3849 585.947 87.9182 586.72C87.4649 587.493 86.8449 588.093 86.0582 588.52C85.2849 588.933 84.4115 589.14 83.4382 589.14ZM83.4182 586.84C83.8315 586.84 84.2249 586.74 84.5982 586.54C84.9715 586.327 85.2782 586.013 85.5182 585.6C85.7582 585.173 85.8782 584.633 85.8782 583.98C85.8782 583.353 85.7649 582.833 85.5382 582.42C85.3115 581.993 85.0115 581.68 84.6382 581.48C84.2782 581.267 83.8849 581.16 83.4582 581.16C83.0449 581.16 82.6582 581.267 82.2982 581.48C81.9515 581.68 81.6715 581.993 81.4582 582.42C81.2582 582.833 81.1582 583.367 81.1582 584.02C81.1582 584.647 81.2582 585.173 81.4582 585.6C81.6582 586.013 81.9315 586.327 82.2782 586.54C82.6249 586.74 83.0049 586.84 83.4182 586.84ZM90.5779 579H92.8979L93.0779 580.02C93.3979 579.66 93.7846 579.38 94.2379 579.18C94.7046 578.967 95.2046 578.86 95.7379 578.86C96.5246 578.86 97.1912 579.027 97.7379 579.36C98.2979 579.693 98.7246 580.18 99.0179 580.82C99.3246 581.447 99.4779 582.227 99.4779 583.16V589H96.8979V583.5C96.8979 582.727 96.7446 582.147 96.4379 581.76C96.1312 581.373 95.6712 581.18 95.0579 581.18C94.4312 581.18 93.9512 581.38 93.6179 581.78C93.2979 582.167 93.1379 582.747 93.1379 583.52V589H90.5779V579Z" fill="#008FA6"/>
<path d="M158 394.5H262.167C275.606 394.5 286.5 405.394 286.5 418.833V433.5H158C147.23 433.5 138.5 424.77 138.5 414C138.5 403.23 147.23 394.5 158 394.5Z" fill="#E5FFFC"/>
<path d="M158 394.5H262.167C275.606 394.5 286.5 405.394 286.5 418.833V433.5H158C147.23 433.5 138.5 424.77 138.5 414C138.5 403.23 147.23 394.5 158 394.5Z" stroke="#5FECDC"/>
<path d="M159.364 413.4C159.898 413.4 160.338 413.32 160.684 413.16C161.031 412.987 161.284 412.747 161.444 412.44C161.618 412.12 161.704 411.747 161.704 411.32C161.704 410.667 161.511 410.16 161.124 409.8C160.751 409.44 160.164 409.26 159.364 409.26H156.384V413.4H159.364ZM164.464 411.32C164.464 411.84 164.371 412.36 164.184 412.88C163.998 413.387 163.704 413.853 163.304 414.28C162.904 414.693 162.384 415.027 161.744 415.28C161.118 415.533 160.351 415.66 159.444 415.66H156.384V421H153.684V407H159.444C160.578 407 161.511 407.2 162.244 407.6C162.991 407.987 163.544 408.513 163.904 409.18C164.278 409.833 164.464 410.547 164.464 411.32ZM166.377 411H168.697L168.877 412.28C169.157 411.933 169.47 411.653 169.817 411.44C170.177 411.213 170.57 411.06 170.997 410.98C171.423 410.887 171.87 410.893 172.337 411V413.4C171.977 413.28 171.597 413.247 171.197 413.3C170.81 413.353 170.443 413.493 170.097 413.72C169.763 413.947 169.483 414.273 169.257 414.7C169.043 415.113 168.937 415.64 168.937 416.28V421H166.377V411ZM174.314 411H176.874V421H174.314V411ZM175.614 409.72C175.134 409.72 174.741 409.573 174.434 409.28C174.128 408.973 173.974 408.6 173.974 408.16C173.974 407.72 174.128 407.353 174.434 407.06C174.741 406.753 175.134 406.6 175.614 406.6C176.068 406.6 176.448 406.753 176.754 407.06C177.074 407.353 177.234 407.72 177.234 408.16C177.234 408.6 177.074 408.973 176.754 409.28C176.448 409.573 176.068 409.72 175.614 409.72ZM184.218 421.14C183.244 421.14 182.378 420.933 181.618 420.52C180.858 420.093 180.258 419.5 179.818 418.74C179.391 417.967 179.178 417.06 179.178 416.02C179.178 414.967 179.398 414.053 179.838 413.28C180.291 412.507 180.904 411.913 181.678 411.5C182.451 411.073 183.318 410.86 184.278 410.86C185.238 410.86 186.104 411.073 186.878 411.5C187.651 411.913 188.264 412.507 188.717 413.28C189.171 414.04 189.398 414.94 189.398 415.98C189.398 417.033 189.164 417.947 188.698 418.72C188.244 419.493 187.624 420.093 186.838 420.52C186.064 420.933 185.191 421.14 184.218 421.14ZM184.198 418.84C184.611 418.84 185.004 418.74 185.378 418.54C185.751 418.327 186.058 418.013 186.298 417.6C186.538 417.173 186.658 416.633 186.658 415.98C186.658 415.353 186.544 414.833 186.318 414.42C186.091 413.993 185.791 413.68 185.418 413.48C185.058 413.267 184.664 413.16 184.238 413.16C183.824 413.16 183.438 413.267 183.078 413.48C182.731 413.68 182.451 413.993 182.238 414.42C182.038 414.833 181.938 415.367 181.938 416.02C181.938 416.647 182.038 417.173 182.238 417.6C182.438 418.013 182.711 418.327 183.058 418.54C183.404 418.74 183.784 418.84 184.198 418.84ZM191.357 411H193.677L193.857 412.28C194.137 411.933 194.451 411.653 194.797 411.44C195.157 411.213 195.551 411.06 195.977 410.98C196.404 410.887 196.851 410.893 197.317 411V413.4C196.957 413.28 196.577 413.247 196.177 413.3C195.791 413.353 195.424 413.493 195.077 413.72C194.744 413.947 194.464 414.273 194.237 414.7C194.024 415.113 193.917 415.64 193.917 416.28V421H191.357V411ZM199.295 411H201.855V421H199.295V411ZM200.595 409.72C200.115 409.72 199.722 409.573 199.415 409.28C199.108 408.973 198.955 408.6 198.955 408.16C198.955 407.72 199.108 407.353 199.415 407.06C199.722 406.753 200.115 406.6 200.595 406.6C201.048 406.6 201.428 406.753 201.735 407.06C202.055 407.353 202.215 407.72 202.215 408.16C202.215 408.6 202.055 408.973 201.735 409.28C201.428 409.573 201.048 409.72 200.595 409.72ZM205.378 411V408.2H207.978V411H210.178V413.26H207.978V417.32C207.978 417.84 208.085 418.207 208.298 418.42C208.525 418.633 208.805 418.747 209.138 418.76C209.485 418.773 209.831 418.753 210.178 418.7V420.9C209.565 421.033 208.965 421.073 208.378 421.02C207.805 420.967 207.291 420.813 206.838 420.56C206.385 420.293 206.025 419.893 205.758 419.36C205.505 418.827 205.378 418.147 205.378 417.32V413.26H203.958V411H205.378ZM212.342 411H214.902V421H212.342V411ZM213.642 409.72C213.162 409.72 212.768 409.573 212.462 409.28C212.155 408.973 212.002 408.6 212.002 408.16C212.002 407.72 212.155 407.353 212.462 407.06C212.768 406.753 213.162 406.6 213.642 406.6C214.095 406.6 214.475 406.753 214.782 407.06C215.102 407.353 215.262 407.72 215.262 408.16C215.262 408.6 215.102 408.973 214.782 409.28C214.475 409.573 214.095 409.72 213.642 409.72ZM225.305 413.02L220.525 418.74H225.345V421H217.285V418.96L222.065 413.26H217.285V411H225.305V413.02ZM233.272 421L233.072 419.78C232.739 420.193 232.359 420.52 231.932 420.76C231.519 421 230.959 421.12 230.252 421.12C229.586 421.12 228.999 421.007 228.492 420.78C227.999 420.54 227.612 420.213 227.332 419.8C227.052 419.373 226.912 418.873 226.912 418.3C226.912 417.46 227.212 416.767 227.812 416.22C228.426 415.66 229.346 415.307 230.572 415.16L233.072 414.88V414.18C233.072 413.9 232.946 413.64 232.692 413.4C232.439 413.16 232.039 413.04 231.492 413.04C231.012 413.04 230.592 413.16 230.232 413.4C229.886 413.627 229.652 413.973 229.532 414.44L227.332 413.64C227.599 412.747 228.106 412.06 228.852 411.58C229.599 411.1 230.519 410.86 231.612 410.86C232.946 410.86 233.946 411.193 234.612 411.86C235.292 412.513 235.632 413.38 235.632 414.46V421H233.272ZM233.072 416.66L230.912 416.94C230.472 416.993 230.139 417.127 229.912 417.34C229.686 417.54 229.572 417.787 229.572 418.08C229.572 418.36 229.686 418.6 229.912 418.8C230.139 418.987 230.459 419.08 230.872 419.08C231.339 419.08 231.732 418.993 232.052 418.82C232.386 418.647 232.639 418.393 232.812 418.06C232.986 417.727 233.072 417.313 233.072 416.82V416.66ZM238.698 411V408.2H241.298V411H243.498V413.26H241.298V417.32C241.298 417.84 241.405 418.207 241.618 418.42C241.845 418.633 242.125 418.747 242.458 418.76C242.805 418.773 243.152 418.753 243.498 418.7V420.9C242.885 421.033 242.285 421.073 241.698 421.02C241.125 420.967 240.612 420.813 240.158 420.56C239.705 420.293 239.345 419.893 239.078 419.36C238.825 418.827 238.698 418.147 238.698 417.32V413.26H237.278V411H238.698ZM245.662 411H248.222V421H245.662V411ZM246.962 409.72C246.482 409.72 246.089 409.573 245.782 409.28C245.475 408.973 245.322 408.6 245.322 408.16C245.322 407.72 245.475 407.353 245.782 407.06C246.089 406.753 246.482 406.6 246.962 406.6C247.415 406.6 247.795 406.753 248.102 407.06C248.422 407.353 248.582 407.72 248.582 408.16C248.582 408.6 248.422 408.973 248.102 409.28C247.795 409.573 247.415 409.72 246.962 409.72ZM255.565 421.14C254.592 421.14 253.725 420.933 252.965 420.52C252.205 420.093 251.605 419.5 251.165 418.74C250.738 417.967 250.525 417.06 250.525 416.02C250.525 414.967 250.745 414.053 251.185 413.28C251.638 412.507 252.252 411.913 253.025 411.5C253.798 411.073 254.665 410.86 255.625 410.86C256.585 410.86 257.452 411.073 258.225 411.5C258.998 411.913 259.612 412.507 260.065 413.28C260.518 414.04 260.745 414.94 260.745 415.98C260.745 417.033 260.512 417.947 260.045 418.72C259.592 419.493 258.972 420.093 258.185 420.52C257.412 420.933 256.538 421.14 255.565 421.14ZM255.545 418.84C255.958 418.84 256.352 418.74 256.725 418.54C257.098 418.327 257.405 418.013 257.645 417.6C257.885 417.173 258.005 416.633 258.005 415.98C258.005 415.353 257.892 414.833 257.665 414.42C257.438 413.993 257.138 413.68 256.765 413.48C256.405 413.267 256.012 413.16 255.585 413.16C255.172 413.16 254.785 413.267 254.425 413.48C254.078 413.68 253.798 413.993 253.585 414.42C253.385 414.833 253.285 415.367 253.285 416.02C253.285 416.647 253.385 417.173 253.585 417.6C253.785 418.013 254.058 418.327 254.405 418.54C254.752 418.74 255.132 418.84 255.545 418.84ZM262.705 411H265.025L265.205 412.02C265.525 411.66 265.912 411.38 266.365 411.18C266.832 410.967 267.332 410.86 267.865 410.86C268.652 410.86 269.318 411.027 269.865 411.36C270.425 411.693 270.852 412.18 271.145 412.82C271.452 413.447 271.605 414.227 271.605 415.16V421H269.025V415.5C269.025 414.727 268.872 414.147 268.565 413.76C268.258 413.373 267.798 413.18 267.185 413.18C266.558 413.18 266.078 413.38 265.745 413.78C265.425 414.167 265.265 414.747 265.265 415.52V421H262.705V411Z" fill="#008FA6"/>
<path d="M330 228.5H435.833C449.456 228.5 460.5 239.544 460.5 253.167V267.5H330C319.23 267.5 310.5 258.77 310.5 248C310.5 237.23 319.23 228.5 330 228.5Z" fill="#E5FFFC"/>
<path d="M330 228.5H435.833C449.456 228.5 460.5 239.544 460.5 253.167V267.5H330C319.23 267.5 310.5 258.77 310.5 248C310.5 237.23 319.23 228.5 330 228.5Z" stroke="#5FECDC"/>
<path d="M331.815 243.26H331.095L326.975 255H324.195L329.215 241H333.675L338.695 255H335.915L331.815 243.26ZM327.235 249.52H335.395V251.78H327.235V249.52ZM340.08 245H342.4L342.58 246.28C342.86 245.933 343.173 245.653 343.52 245.44C343.88 245.213 344.273 245.06 344.7 244.98C345.127 244.887 345.573 244.893 346.04 245V247.4C345.68 247.28 345.3 247.247 344.9 247.3C344.513 247.353 344.147 247.493 343.8 247.72C343.467 247.947 343.187 248.273 342.96 248.7C342.747 249.113 342.64 249.64 342.64 250.28V255H340.08V245ZM352.078 255.14C351.104 255.14 350.251 254.927 349.518 254.5C348.784 254.073 348.211 253.48 347.798 252.72C347.384 251.947 347.178 251.053 347.178 250.04C347.178 249.013 347.384 248.113 347.798 247.34C348.211 246.567 348.791 245.96 349.538 245.52C350.284 245.08 351.144 244.86 352.118 244.86C353.171 244.86 354.104 245.12 354.918 245.64C355.744 246.16 356.324 246.86 356.658 247.74L354.278 248.42C354.118 248.033 353.851 247.727 353.478 247.5C353.118 247.273 352.704 247.16 352.238 247.16C351.771 247.16 351.358 247.28 350.998 247.52C350.651 247.76 350.378 248.093 350.178 248.52C349.991 248.947 349.898 249.447 349.898 250.02C349.898 250.887 350.111 251.573 350.538 252.08C350.964 252.587 351.538 252.84 352.258 252.84C352.711 252.84 353.124 252.733 353.498 252.52C353.871 252.293 354.151 251.987 354.338 251.6L356.698 252.28C356.338 253.147 355.738 253.84 354.898 254.36C354.071 254.88 353.131 255.14 352.078 255.14ZM358.654 240.6H361.214V245.98C361.521 245.647 361.901 245.38 362.354 245.18C362.821 244.967 363.341 244.86 363.914 244.86C364.674 244.86 365.334 245.027 365.894 245.36C366.467 245.693 366.907 246.18 367.214 246.82C367.521 247.447 367.674 248.227 367.674 249.16V255H364.974V249.5C364.974 248.727 364.821 248.147 364.514 247.76C364.207 247.373 363.747 247.18 363.134 247.18C362.507 247.18 362.027 247.393 361.694 247.82C361.374 248.233 361.214 248.827 361.214 249.6V255H358.654V240.6ZM370.342 245H372.902V255H370.342V245ZM371.642 243.72C371.162 243.72 370.768 243.573 370.462 243.28C370.155 242.973 370.002 242.6 370.002 242.16C370.002 241.72 370.155 241.353 370.462 241.06C370.768 240.753 371.162 240.6 371.642 240.6C372.095 240.6 372.475 240.753 372.782 241.06C373.102 241.353 373.262 241.72 373.262 242.16C373.262 242.6 373.102 242.973 372.782 243.28C372.475 243.573 372.095 243.72 371.642 243.72ZM376.425 245V242.2H379.025V245H381.225V247.26H379.025V251.32C379.025 251.84 379.132 252.207 379.345 252.42C379.572 252.633 379.852 252.747 380.185 252.76C380.532 252.773 380.878 252.753 381.225 252.7V254.9C380.612 255.033 380.012 255.073 379.425 255.02C378.852 254.967 378.338 254.813 377.885 254.56C377.432 254.293 377.072 253.893 376.805 253.36C376.552 252.827 376.425 252.147 376.425 251.32V247.26H375.005V245H376.425ZM387.589 255.14C386.589 255.14 385.709 254.92 384.949 254.48C384.189 254.04 383.595 253.427 383.169 252.64C382.755 251.853 382.549 250.947 382.549 249.92C382.549 248.933 382.755 248.06 383.169 247.3C383.582 246.54 384.155 245.947 384.889 245.52C385.635 245.08 386.482 244.86 387.429 244.86C388.389 244.86 389.235 245.067 389.969 245.48C390.702 245.893 391.269 246.473 391.669 247.22C392.082 247.953 392.289 248.813 392.289 249.8C392.289 249.947 392.275 250.113 392.249 250.3C392.235 250.473 392.215 250.66 392.189 250.86H385.309C385.362 251.287 385.495 251.653 385.709 251.96C385.935 252.253 386.209 252.487 386.529 252.66C386.862 252.82 387.235 252.9 387.649 252.9C388.142 252.9 388.582 252.8 388.969 252.6C389.369 252.387 389.655 252.113 389.829 251.78L392.109 252.46C391.709 253.313 391.109 253.973 390.309 254.44C389.522 254.907 388.615 255.14 387.589 255.14ZM389.489 249C389.475 248.627 389.375 248.293 389.189 248C389.002 247.693 388.755 247.46 388.449 247.3C388.142 247.127 387.802 247.04 387.429 247.04C387.095 247.04 386.782 247.127 386.489 247.3C386.195 247.473 385.942 247.707 385.729 248C385.529 248.28 385.395 248.613 385.329 249H389.489ZM398.64 255.14C397.667 255.14 396.813 254.927 396.08 254.5C395.347 254.073 394.773 253.48 394.36 252.72C393.947 251.947 393.74 251.053 393.74 250.04C393.74 249.013 393.947 248.113 394.36 247.34C394.773 246.567 395.353 245.96 396.1 245.52C396.847 245.08 397.707 244.86 398.68 244.86C399.733 244.86 400.667 245.12 401.48 245.64C402.307 246.16 402.887 246.86 403.22 247.74L400.84 248.42C400.68 248.033 400.413 247.727 400.04 247.5C399.68 247.273 399.267 247.16 398.8 247.16C398.333 247.16 397.92 247.28 397.56 247.52C397.213 247.76 396.94 248.093 396.74 248.52C396.553 248.947 396.46 249.447 396.46 250.02C396.46 250.887 396.673 251.573 397.1 252.08C397.527 252.587 398.1 252.84 398.82 252.84C399.273 252.84 399.687 252.733 400.06 252.52C400.433 252.293 400.713 251.987 400.9 251.6L403.26 252.28C402.9 253.147 402.3 253.84 401.46 254.36C400.633 254.88 399.693 255.14 398.64 255.14ZM405.937 245V242.2H408.537V245H410.737V247.26H408.537V251.32C408.537 251.84 408.643 252.207 408.857 252.42C409.083 252.633 409.363 252.747 409.697 252.76C410.043 252.773 410.39 252.753 410.737 252.7V254.9C410.123 255.033 409.523 255.073 408.937 255.02C408.363 254.967 407.85 254.813 407.397 254.56C406.943 254.293 406.583 253.893 406.317 253.36C406.063 252.827 405.937 252.147 405.937 251.32V247.26H404.517V245H405.937ZM421.34 255H419L418.82 253.96C418.5 254.333 418.107 254.627 417.64 254.84C417.187 255.04 416.7 255.14 416.18 255.14C415.407 255.14 414.74 254.973 414.18 254.64C413.62 254.307 413.187 253.827 412.88 253.2C412.574 252.56 412.42 251.773 412.42 250.84V245H415V250.52C415 251.28 415.147 251.86 415.44 252.26C415.747 252.647 416.214 252.84 416.84 252.84C417.454 252.84 417.927 252.64 418.26 252.24C418.607 251.84 418.78 251.26 418.78 250.5V245H421.34V255ZM423.791 245H426.111L426.291 246.28C426.571 245.933 426.884 245.653 427.231 245.44C427.591 245.213 427.984 245.06 428.411 244.98C428.837 244.887 429.284 244.893 429.751 245V247.4C429.391 247.28 429.011 247.247 428.611 247.3C428.224 247.353 427.857 247.493 427.511 247.72C427.177 247.947 426.897 248.273 426.671 248.7C426.457 249.113 426.351 249.64 426.351 250.28V255H423.791V245ZM435.928 255.14C434.928 255.14 434.048 254.92 433.288 254.48C432.528 254.04 431.935 253.427 431.508 252.64C431.095 251.853 430.888 250.947 430.888 249.92C430.888 248.933 431.095 248.06 431.508 247.3C431.922 246.54 432.495 245.947 433.228 245.52C433.975 245.08 434.822 244.86 435.768 244.86C436.728 244.86 437.575 245.067 438.308 245.48C439.042 245.893 439.608 246.473 440.008 247.22C440.422 247.953 440.628 248.813 440.628 249.8C440.628 249.947 440.615 250.113 440.588 250.3C440.575 250.473 440.555 250.66 440.528 250.86H433.648C433.702 251.287 433.835 251.653 434.048 251.96C434.275 252.253 434.548 252.487 434.868 252.66C435.202 252.82 435.575 252.9 435.988 252.9C436.482 252.9 436.922 252.8 437.308 252.6C437.708 252.387 437.995 252.113 438.168 251.78L440.448 252.46C440.048 253.313 439.448 253.973 438.648 254.44C437.862 254.907 436.955 255.14 435.928 255.14ZM437.828 249C437.815 248.627 437.715 248.293 437.528 248C437.342 247.693 437.095 247.46 436.788 247.3C436.482 247.127 436.142 247.04 435.768 247.04C435.435 247.04 435.122 247.127 434.828 247.3C434.535 247.473 434.282 247.707 434.068 248C433.868 248.28 433.735 248.613 433.668 249H437.828Z" fill="#008FA6"/>
<path d="M497.5 61.5H604.5C618.307 61.5 629.5 72.6929 629.5 86.5V101.5H497.5C486.454 101.5 477.5 92.5457 477.5 81.5C477.5 70.4543 486.454 61.5 497.5 61.5Z" fill="#E5FFFC"/>
<path d="M497.5 61.5H604.5C618.307 61.5 629.5 72.6929 629.5 86.5V101.5H497.5C486.454 101.5 477.5 92.5457 477.5 81.5C477.5 70.4543 486.454 61.5 497.5 61.5Z" stroke="#5FECDC"/>
<path d="M497.99 74.5C499.483 74.5 500.777 74.7933 501.87 75.38C502.977 75.9533 503.837 76.7667 504.45 77.82C505.063 78.8733 505.37 80.1133 505.37 81.54C505.37 82.9533 505.063 84.18 504.45 85.22C503.837 86.26 502.977 87.0667 501.87 87.64C500.777 88.2133 499.483 88.5 497.99 88.5H492.77V74.5H497.99ZM497.91 86.24C499.417 86.24 500.577 85.8267 501.39 85C502.203 84.16 502.61 83.0067 502.61 81.54C502.61 80.06 502.203 78.8933 501.39 78.04C500.577 77.1867 499.417 76.76 497.91 76.76H495.47V86.24H497.91ZM511.839 88.64C510.839 88.64 509.959 88.42 509.199 87.98C508.439 87.54 507.845 86.9267 507.419 86.14C507.005 85.3533 506.799 84.4467 506.799 83.42C506.799 82.4333 507.005 81.56 507.419 80.8C507.832 80.04 508.405 79.4467 509.139 79.02C509.885 78.58 510.732 78.36 511.679 78.36C512.639 78.36 513.485 78.5667 514.219 78.98C514.952 79.3933 515.519 79.9733 515.919 80.72C516.332 81.4533 516.539 82.3133 516.539 83.3C516.539 83.4467 516.525 83.6133 516.499 83.8C516.485 83.9733 516.465 84.16 516.439 84.36H509.559C509.612 84.7867 509.745 85.1533 509.959 85.46C510.185 85.7533 510.459 85.9867 510.779 86.16C511.112 86.32 511.485 86.4 511.899 86.4C512.392 86.4 512.832 86.3 513.219 86.1C513.619 85.8867 513.905 85.6133 514.079 85.28L516.359 85.96C515.959 86.8133 515.359 87.4733 514.559 87.94C513.772 88.4067 512.865 88.64 511.839 88.64ZM513.739 82.5C513.725 82.1267 513.625 81.7933 513.439 81.5C513.252 81.1933 513.005 80.96 512.699 80.8C512.392 80.6267 512.052 80.54 511.679 80.54C511.345 80.54 511.032 80.6267 510.739 80.8C510.445 80.9733 510.192 81.2067 509.979 81.5C509.779 81.78 509.645 82.1133 509.579 82.5H513.739ZM520.43 78.5L522.81 85.62L525.21 78.5H527.95L524.23 88.5H521.37L517.67 78.5H520.43ZM534.124 88.64C533.124 88.64 532.244 88.42 531.484 87.98C530.724 87.54 530.13 86.9267 529.704 86.14C529.29 85.3533 529.084 84.4467 529.084 83.42C529.084 82.4333 529.29 81.56 529.704 80.8C530.117 80.04 530.69 79.4467 531.424 79.02C532.17 78.58 533.017 78.36 533.964 78.36C534.924 78.36 535.77 78.5667 536.504 78.98C537.237 79.3933 537.804 79.9733 538.204 80.72C538.617 81.4533 538.824 82.3133 538.824 83.3C538.824 83.4467 538.81 83.6133 538.784 83.8C538.77 83.9733 538.75 84.16 538.724 84.36H531.844C531.897 84.7867 532.03 85.1533 532.244 85.46C532.47 85.7533 532.744 85.9867 533.064 86.16C533.397 86.32 533.77 86.4 534.184 86.4C534.677 86.4 535.117 86.3 535.504 86.1C535.904 85.8867 536.19 85.6133 536.364 85.28L538.644 85.96C538.244 86.8133 537.644 87.4733 536.844 87.94C536.057 88.4067 535.15 88.64 534.124 88.64ZM536.024 82.5C536.01 82.1267 535.91 81.7933 535.724 81.5C535.537 81.1933 535.29 80.96 534.984 80.8C534.677 80.6267 534.337 80.54 533.964 80.54C533.63 80.54 533.317 80.6267 533.024 80.8C532.73 80.9733 532.477 81.2067 532.264 81.5C532.064 81.78 531.93 82.1133 531.864 82.5H536.024ZM540.775 74.1H543.335V88.5H540.775V74.1ZM550.335 88.64C549.361 88.64 548.495 88.4333 547.735 88.02C546.975 87.5933 546.375 87 545.935 86.24C545.508 85.4667 545.295 84.56 545.295 83.52C545.295 82.4667 545.515 81.5533 545.955 80.78C546.408 80.0067 547.021 79.4133 547.795 79C548.568 78.5733 549.435 78.36 550.395 78.36C551.355 78.36 552.221 78.5733 552.995 79C553.768 79.4133 554.381 80.0067 554.835 80.78C555.288 81.54 555.515 82.44 555.515 83.48C555.515 84.5333 555.281 85.4467 554.815 86.22C554.361 86.9933 553.741 87.5933 552.955 88.02C552.181 88.4333 551.308 88.64 550.335 88.64ZM550.315 86.34C550.728 86.34 551.121 86.24 551.495 86.04C551.868 85.8267 552.175 85.5133 552.415 85.1C552.655 84.6733 552.775 84.1333 552.775 83.48C552.775 82.8533 552.661 82.3333 552.435 81.92C552.208 81.4933 551.908 81.18 551.535 80.98C551.175 80.7667 550.781 80.66 550.355 80.66C549.941 80.66 549.555 80.7667 549.195 80.98C548.848 81.18 548.568 81.4933 548.355 81.92C548.155 82.3333 548.055 82.8667 548.055 83.52C548.055 84.1467 548.155 84.6733 548.355 85.1C548.555 85.5133 548.828 85.8267 549.175 86.04C549.521 86.24 549.901 86.34 550.315 86.34ZM559.714 87L560.034 86.96V92.5H557.474V78.5H559.794L559.954 79.74C560.248 79.3533 560.661 79.0267 561.194 78.76C561.728 78.4933 562.341 78.36 563.034 78.36C563.901 78.36 564.668 78.5733 565.334 79C566.001 79.4267 566.521 80.0267 566.894 80.8C567.281 81.56 567.474 82.46 567.474 83.5C567.474 84.54 567.281 85.4467 566.894 86.22C566.521 86.9933 566.001 87.5933 565.334 88.02C564.681 88.4333 563.914 88.64 563.034 88.64C562.261 88.64 561.588 88.48 561.014 88.16C560.454 87.84 560.021 87.4533 559.714 87ZM564.714 83.5C564.714 82.66 564.494 81.9867 564.054 81.48C563.628 80.96 563.068 80.7 562.374 80.7C561.948 80.7 561.554 80.8133 561.194 81.04C560.848 81.2533 560.568 81.5667 560.354 81.98C560.141 82.38 560.034 82.8867 560.034 83.5C560.034 84.1 560.141 84.6067 560.354 85.02C560.568 85.4333 560.848 85.7533 561.194 85.98C561.554 86.1933 561.948 86.3 562.374 86.3C563.068 86.3 563.628 86.0467 564.054 85.54C564.494 85.02 564.714 84.34 564.714 83.5ZM569.428 78.5H571.748L571.928 79.48C572.248 79.1467 572.628 78.88 573.068 78.68C573.521 78.4667 574.014 78.36 574.548 78.36C575.188 78.36 575.774 78.5 576.308 78.78C576.841 79.0467 577.268 79.4333 577.588 79.94C577.948 79.4467 578.414 79.06 578.988 78.78C579.574 78.5 580.208 78.36 580.888 78.36C581.674 78.36 582.354 78.5267 582.928 78.86C583.514 79.1933 583.968 79.68 584.288 80.32C584.608 80.9467 584.768 81.7267 584.768 82.66V88.5H582.208V83C582.208 82.24 582.041 81.6667 581.708 81.28C581.374 80.8933 580.901 80.7 580.288 80.7C579.661 80.7 579.168 80.9 578.808 81.3C578.461 81.7 578.287 82.28 578.287 83.04V88.5H575.728V83C575.728 82.24 575.574 81.6667 575.268 81.28C574.974 80.8933 574.521 80.7 573.908 80.7C573.281 80.7 572.801 80.9 572.468 81.3C572.148 81.6867 571.988 82.26 571.988 83.02V88.5H569.428V78.5ZM591.624 88.64C590.624 88.64 589.744 88.42 588.984 87.98C588.224 87.54 587.63 86.9267 587.204 86.14C586.79 85.3533 586.584 84.4467 586.584 83.42C586.584 82.4333 586.79 81.56 587.204 80.8C587.617 80.04 588.19 79.4467 588.924 79.02C589.67 78.58 590.517 78.36 591.464 78.36C592.424 78.36 593.27 78.5667 594.004 78.98C594.737 79.3933 595.304 79.9733 595.704 80.72C596.117 81.4533 596.324 82.3133 596.324 83.3C596.324 83.4467 596.31 83.6133 596.284 83.8C596.27 83.9733 596.25 84.16 596.224 84.36H589.344C589.397 84.7867 589.53 85.1533 589.744 85.46C589.97 85.7533 590.244 85.9867 590.564 86.16C590.897 86.32 591.27 86.4 591.684 86.4C592.177 86.4 592.617 86.3 593.004 86.1C593.404 85.8867 593.69 85.6133 593.864 85.28L596.144 85.96C595.744 86.8133 595.144 87.4733 594.344 87.94C593.557 88.4067 592.65 88.64 591.624 88.64ZM593.524 82.5C593.51 82.1267 593.41 81.7933 593.224 81.5C593.037 81.1933 592.79 80.96 592.484 80.8C592.177 80.6267 591.837 80.54 591.464 80.54C591.13 80.54 590.817 80.6267 590.524 80.8C590.23 80.9733 589.977 81.2067 589.764 81.5C589.564 81.78 589.43 82.1133 589.364 82.5H593.524ZM598.275 78.5H600.595L600.775 79.52C601.095 79.16 601.482 78.88 601.935 78.68C602.402 78.4667 602.902 78.36 603.435 78.36C604.222 78.36 604.888 78.5267 605.435 78.86C605.995 79.1933 606.422 79.68 606.715 80.32C607.022 80.9467 607.175 81.7267 607.175 82.66V88.5H604.595V83C604.595 82.2267 604.442 81.6467 604.135 81.26C603.828 80.8733 603.368 80.68 602.755 80.68C602.128 80.68 601.648 80.88 601.315 81.28C600.995 81.6667 600.835 82.2467 600.835 83.02V88.5H598.275V78.5ZM610.206 78.5V75.7H612.806V78.5H615.006V80.76H612.806V84.82C612.806 85.34 612.913 85.7067 613.126 85.92C613.353 86.1333 613.633 86.2467 613.966 86.26C614.313 86.2733 614.659 86.2533 615.006 86.2V88.4C614.393 88.5333 613.793 88.5733 613.206 88.52C612.633 88.4667 612.119 88.3133 611.666 88.06C611.213 87.7933 610.853 87.3933 610.586 86.86C610.333 86.3267 610.206 85.6467 610.206 84.82V80.76H608.786V78.5H610.206Z" fill="#008FA6"/>
<defs>
<clipPath id="clip0_297_564">
<rect width="1053.94" height="415.907" fill="white" transform="translate(1039.34 294.09) rotate(135)"/>
</clipPath>
</defs>
</svg>
