<svg width="346" height="273" viewBox="0 0 346 273" fill="none" xmlns="http://www.w3.org/2000/svg">
<g clip-path="url(#clip0_148_851)">
<path d="M70.7108 221.731C68.4192 221.352 66.5299 220.223 64.1952 219.695C55.752 217.785 45.581 220.061 37.112 220.793C30.816 221.335 16.8473 220.275 11.7547 222.913C10.1276 223.758 8.56346 224.832 9.68725 226.874C9.79335 227.065 12.7018 229.342 13.0618 229.57C17.2341 232.173 21.8211 231.82 26.5897 231.431C35.8307 230.673 45.3294 228.655 54.4734 227.726C59.9265 227.172 64.584 228.045 69.8967 228.274C72.6496 230.53 73.3068 233.435 75.0904 236.319C78.394 241.646 82.6523 245.74 87.7891 249.269C85.9012 249.645 83.8259 249.741 81.8932 249.749C62.3178 249.819 42.7187 247.97 23.1786 248.287C20.8037 248.327 13.7364 249.188 12.2726 250.876C9.06602 254.57 18.4503 257.611 20.9458 258.002C32.0307 259.743 45.7484 258.25 57.065 258.141L85.5191 258.139C88.1002 257.976 90.6858 257.919 93.2687 257.797C122.049 256.437 151.67 252.522 180.425 252.054C197.118 251.782 214.835 254.312 231.494 254.932C249.177 255.588 266.595 254.869 284.384 255.911C294.348 256.497 303.879 256.235 313.764 256.6C321.554 256.891 331.063 258.897 338.655 257.553C341.287 257.086 342.916 251.932 340.451 250.405C339.627 249.896 337.797 249.545 336.782 249.337C328.064 247.549 315.65 245.952 306.801 245.899C299.311 245.855 291.484 248.219 284.189 245.489C292.434 240.433 295.579 230.808 299.941 222.7C302.045 222.779 304.143 222.096 306.117 221.919C316.461 220.978 342.04 224.249 343.164 209.065C345.12 182.648 332.128 175.042 309.745 167.752C295.34 163.065 280.128 159.467 265.213 156.793C263.95 156.568 256.28 155.771 256.201 155.164C260.819 141.693 263.025 127.503 265.632 113.527C271.154 83.9261 275.486 54.8412 275.263 24.5168C275.233 20.6032 274.796 7.85633 271.541 5.56234C267.35 2.60972 266.442 10.447 266.234 12.7432C266.026 15.0395 266.399 18.4048 266.114 20.4318C266.049 20.8986 266.012 21.2584 265.49 21.4157C264.417 21.8252 258.254 21.1368 256.756 20.857C247.081 19.058 238.188 9.80971 229.478 20.022C226.057 24.0349 221.97 31.0155 222.456 36.3943C215.592 33.5678 212.56 41.4988 210.214 46.4288C209.618 47.68 208.859 49.0036 208.828 50.4252C208.205 50.5992 208.174 50.3564 207.826 50.034C202.969 45.5562 199.513 39.5474 193.998 35.7498C193.352 34.1098 196.2 19.4436 197.433 17.9608C198.156 17.0906 199.484 18.2366 200.242 18.724C204 21.1586 212.506 28.381 216.221 29.3688C220.763 30.5804 224.048 27.7536 221.831 23.2407C220.042 19.596 216.518 18.7748 213.477 16.6139C209.59 13.8512 204.954 9.48578 200.955 7.30193C190.78 1.74028 187.381 16.7603 185.879 23.7611C185.228 26.8054 185.187 31.4912 184.411 34.1096C184.018 35.4373 181.586 36.5783 181.392 38.174C180.384 38.951 173.203 32.6264 172.192 31.4787C169.81 28.7717 164.991 20.0925 161.239 20.0831C156.078 20.0748 157.358 27.9539 157.069 30.9008C156.936 32.2374 155.212 39.9154 154.066 40.1328C149.346 38.8679 144.502 39.395 139.705 38.0196C131.717 35.731 127.774 28.0875 118.566 33.8452C116.911 34.8828 115.974 35.8723 114.898 37.5029C112.316 41.4096 108.584 55.0526 115.471 56.0143C121.634 56.8737 119.287 43.8042 124.061 41.6116C130.963 44.3714 137.544 48.4475 145.096 49.1601C146.248 49.268 147.495 48.9403 148.705 49.0497C152.693 49.4068 154.358 50.7129 158.73 49.1811C163.102 47.6493 163.47 42.7048 166.013 39.2922C168.781 43.3657 173.567 46.402 178.182 48.1517C178.236 52.4386 175.786 55.6437 175.051 59.6439C171.003 58.3005 168.097 50.0781 163.824 49.9859C163.18 49.9736 161.492 50.451 161.04 50.9064C160.729 51.2213 158.791 56.3652 158.555 57.2058C157.299 61.6604 156.558 66.9143 155.633 71.4886C155.266 71.8466 148.373 68.4475 147.537 67.7763C145.322 65.9858 143.976 62.9727 141.744 60.9062C139.194 58.5485 133.092 54.7198 129.897 53.4121C123.17 50.6568 118.985 59.6439 126.413 63.174C127.514 63.6992 128.793 63.8137 129.971 64.3966C134.593 66.6913 138.75 73.1981 143.047 76.5083C146.228 78.9602 149.965 80.183 153.245 82.3986L158.54 81.9451C157.168 85.1596 157.991 86.8406 160.672 88.7652C161.361 89.2597 163.64 89.8022 163.389 90.4725L160.682 93.872C160.064 94.1638 158.436 93.5072 157.709 93.2788C146.575 89.7739 141.216 80.6546 128.953 79.9749C123.535 79.6727 118.449 85.0329 123.285 89.5849C125.493 91.6647 126.317 90.1551 128.216 89.9249C128.961 89.835 130.749 90.1468 131.532 90.3727C142.186 93.4145 154.365 109.989 166.338 102.535C171.178 99.5212 169.766 96.4825 172.107 93.0056C172.821 91.9404 173.977 91.572 174.573 90.5853C175.957 88.2982 174.686 84.2155 174.8 81.4392C174.928 78.3448 176.457 75.3838 175.2 72.261C179.209 72.3608 180.032 68.1288 182.217 65.6314C184.911 65.9194 187.595 67.8113 189.274 69.8778C191.266 72.3333 191.75 76.1984 195.866 75.4022C197.524 75.0808 199.729 72.5622 199.56 70.779C205.253 72.4242 206.123 73.7002 209.553 68.4334C213.266 62.735 216.841 55.3253 219.424 49.0175C219.729 48.2716 219.97 47.4796 220.069 46.6776C221.244 45.7182 232.363 54.9781 233.519 56.4572C234.589 57.8262 235.04 59.369 234.221 61.0086C233.806 61.8367 233.008 62.0144 232.625 62.662C230.846 65.6747 229.026 69.0717 229.756 72.702C229.207 73.3611 216.714 67.0024 213.363 67.9886C212.082 68.3666 210.577 69.7841 210.327 71.1218C210.182 71.8933 210.567 72.4135 210.511 72.8839C210.136 76.0056 210.112 79.3314 209.143 82.4751C208.684 83.9686 207.373 87.0827 205.526 87.0055C203.806 86.9349 200.345 85.8871 198.269 85.5962C196.647 85.3666 194.963 85.4613 193.192 85.1813C189.586 84.612 181.948 81.7667 178.808 83.5494C176.029 85.1248 175.433 89.8026 178.287 91.6707C178.677 91.9262 183.574 93.814 184.309 94.0339C185.772 94.4698 187.679 94.7845 189.217 95.0585C193.725 95.8688 204.46 97.6089 208.54 96.7411C215.664 95.2221 216.48 85.6796 218.24 80.2912C218.402 79.7998 218.006 79.6871 218.86 79.6819C220.313 79.6748 226.896 81.6835 228.545 82.327C231.278 83.3947 234.055 85.4616 236.725 86.589C238.911 87.514 251.695 92.0774 253.195 92.0478C257.525 91.9585 257.744 86.866 255.972 83.8717C253.119 79.0613 246.929 79.2408 242.303 77.516C240.408 76.8061 238.422 74.977 236.367 74.4084L239.685 66.9735C240.248 66.8306 240.201 66.8733 240.537 67.1963C241.854 68.4608 242.703 70.1691 244.351 71.4516C247.056 73.5541 256.8 77.8163 260.196 78.4193C260.75 78.517 261.216 78.301 261.741 78.2127C261.577 83.9825 259.308 89.377 258.122 94.968C253.926 114.776 252.043 135.187 245.592 154.444C241.492 154.299 237.307 153.352 233.102 153.139C229.125 152.936 224.5 152.884 220.495 152.861C218.398 152.848 216.28 153.161 214.184 153.156C214.086 152.697 214.165 152.368 214.342 151.941C216.482 146.763 222.426 139.648 225.079 134.098C226.778 130.539 228.765 122.834 228.104 119.005C227.503 115.536 224.293 112.043 221.11 115.264L213.409 133.937C204.535 151.401 186.76 171.06 165.52 170.764C151.199 170.566 140.9 157.684 139.7 144.052C138.489 130.26 155.766 143.017 159.011 147.859L151.497 148.191C148.991 148.301 148.212 151.668 149.084 153.811C151.658 160.136 167.499 161.858 172.294 156.897C174.902 154.198 174.094 148.984 172.173 146.045C168.603 140.578 154.405 129.806 148.011 128.587C138.527 126.779 132.731 130.185 129.76 139.212C126.409 138.611 122.355 138.603 118.952 139.046C111.345 140.037 95.4285 147.576 90.4774 153.512C88.2937 156.132 89.5569 157.83 85.6107 158.411C75.1349 159.96 65.2764 161.665 55.3072 165.747C35.0968 174.021 41.1518 196.327 54.8348 207.79C58.5493 210.902 65.7682 212.459 70.3667 214.027L70.7073 221.744L70.7108 221.731ZM227.888 39.4062C229.609 39.0372 230.039 37.0608 230.993 35.8101C233.424 32.6302 233.736 31.4038 235.607 28.3423C238.609 23.424 245.405 28.2029 249.051 30.1297L239.116 49.4752C236.276 45.1525 231.843 42.5483 227.888 39.4062ZM263.011 69.9973C261.478 69.4871 260.371 68.2703 258.852 67.5194C256.248 66.2344 252.404 65.4517 250 63.9911C248.085 62.8303 247.188 60.6805 245.151 59.6106L257.859 31.556L265.798 31.6248C264.559 44.4171 265.075 57.3069 263.015 69.9971L263.011 69.9973ZM186.287 55.8802C186.821 54.3184 187.947 44.4407 189.239 44.3715L203.863 58.9095C202.18 61.6209 200.207 64.0357 199.2 67.1201C195.966 62.4608 192.111 57.2713 186.288 55.8842L186.287 55.8802ZM165.07 63.7429C165.994 63.4661 165.744 63.8881 166.023 64.2136C168.044 66.5946 169.684 69.3587 171.927 71.5753C168.349 71.8471 166.379 75.6129 165.725 78.7753L162.06 78.522C164.854 74.1582 164.807 68.7559 165.07 63.7429ZM105.62 155.086C106.941 153.38 120.943 149.657 123.466 149.851C125.504 150.005 128.031 151.204 130.231 150.33C132.229 163.333 141.379 176.558 154.636 179.66C171.129 183.523 183.198 179.331 196.749 170.106C199.238 168.413 204.028 162.793 206.25 162.435C208.857 162.011 213.661 161.961 216.409 161.999C249.043 162.455 290.64 169.609 320.577 182.747C329.603 186.707 334.784 196.298 333.234 206.19C332.733 209.399 328.368 210.833 325.567 211.253C317.942 212.387 309.894 211.241 302.285 212.737C302.957 205.178 302.867 197.69 298.406 191.217C292.353 182.434 272.669 173.031 262.105 173.509C248.219 174.138 240.75 180.092 237.66 193.528C235.615 202.42 235.542 210.359 237.867 219.242C234.952 219.407 232.052 220.081 229.166 220.436C208.435 223.011 187.913 222.639 167.043 223.165C158.23 223.387 148.9 223.229 140.186 223.943C138.904 224.049 137.692 224.692 136.366 224.535C136.627 221.134 138.081 218.302 138.327 214.837C139.122 203.537 137.231 194.346 129.363 185.997C117.745 173.666 106.507 169.47 89.8053 174.708C79.5294 177.928 72.5723 189.496 71.0711 199.65C70.8113 201.416 70.8323 203.645 70.8146 205.457C61.7053 202.099 56.0681 196.821 53.8436 187.173C52.47 181.222 52.6109 178.974 58.3282 176.292C71.6968 170.025 93.9831 165.912 108.696 165.108C114.132 164.811 120.186 165.517 125.409 164.818C129.867 164.223 128.984 159.712 126.07 157.671C119.362 156.812 112.693 155.364 105.872 155.897L105.633 155.098L105.62 155.086ZM105.33 183.277C112.657 183.954 123.478 194.017 125.965 200.756C129.682 210.835 125.993 228.224 117.907 235.512C115.93 237.292 108.428 242.506 106.038 242.571C95.8842 242.832 85.4448 235.984 82.5017 226.098C80.5666 219.595 81.1568 200.972 84.0236 194.745C87.4954 187.193 97.2151 182.528 105.334 183.276L105.33 183.277ZM254.811 231.374C247.343 224.175 243.866 198.959 249.818 190.627C257.495 179.886 272.34 184.843 282.011 189.955C298.232 198.53 292.899 221.921 282.431 232.959C276.21 239.521 260.97 237.317 254.811 231.374ZM133.83 230.796C138.219 231.478 142.14 232.721 146.699 233.024C165.698 234.286 185.788 232.947 204.867 232.069C215.459 231.581 226.344 231.45 236.897 230.273C238.241 230.124 239.765 229.515 241.122 229.272C242.878 234.127 245.938 238.359 250.043 241.47C251.715 242.735 253.68 243.56 255.27 244.91C245.881 244.083 236.396 244.843 226.974 244.531C217.331 244.207 207.678 243.197 198.003 242.969C175.344 242.43 151.917 243.558 129.352 245.591C126.847 245.816 124.014 246.547 121.463 246.745C121.6 246.072 122.619 246.006 123.241 245.454C124.972 243.909 128.311 240.644 129.653 238.851C131.351 236.579 132.807 233.43 133.834 230.788L133.83 230.796Z" fill="#FFD833"/>
</g>
<defs>
<clipPath id="clip0_148_851">
<rect width="334.739" height="257.721" fill="white" transform="matrix(-0.999028 0.0440886 0.0440886 0.999028 334.414 0)"/>
</clipPath>
</defs>
</svg>
